<?xml version="1.0" encoding="UTF-8"?>
<svg xmlns="http://www.w3.org/2000/svg" width="520" height="341" viewBox="0 0 520 341" fill="none">
  <g stroke="#4B5563" stroke-width="2.8" stroke-linecap="round" stroke-linejoin="round">
    <line x1="94.922" y1="117.864" x2="245.899" y2="63.114" />
    <line x1="95.451" y1="128.411" x2="245.457" y2="166.324" />
    <line x1="91.593" y1="135.8" x2="248.673" y2="272.167" />
    <line x1="90.693" y1="228.237" x2="249.422" y2="68.636" />
    <line x1="94.769" y1="234.458" x2="246.026" y2="175.452" />
    <line x1="95.56" y1="244.956" x2="245.367" y2="278.703" />
    <line x1="274.101" y1="63.114" x2="425.078" y2="117.864" />
    <line x1="270.578" y1="68.636" x2="429.307" y2="228.237" />
    <line x1="274.543" y1="166.324" x2="424.549" y2="128.411" />
    <line x1="273.974" y1="175.452" x2="425.231" y2="234.458" />
    <line x1="271.327" y1="272.167" x2="428.407" y2="135.8" />
    <line x1="274.633" y1="278.703" x2="424.44" y2="244.956" />
  </g>
  <g fill="#111827">
    <circle cx="78" cy="124" r="18" />
    <circle cx="78" cy="241" r="18" />
    <circle cx="442" cy="124" r="18" />
    <circle cx="442" cy="241" r="18" />
  </g>
  <g fill="#111827">
    <circle cx="260" cy="58" r="15" />
    <circle cx="260" cy="170" r="15" />
    <circle cx="260" cy="282" r="15" />
  </g>
</svg>