<?xml version="1.0" encoding="UTF-8"?>
<svg xmlns="http://www.w3.org/2000/svg" width="117" height="110" viewBox="0 0 117 110" fill="none">
  <g stroke="#6E7780" stroke-width="3" stroke-linecap="round">
    <line x1="13" y1="13" x2="13" y2="96" />
    <line x1="13" y1="96" x2="104" y2="96" />
  </g>
  <g stroke="#C4CBD2" stroke-width="2.6" stroke-linecap="round" fill="none">
    <line x1="21.636" y1="67.636" x2="75.636" y2="13.636" stroke-dasharray="7 5" opacity="0.9" stroke="#C4CBD2" />
    <line x1="28" y1="74" x2="82" y2="20" opacity="1" stroke="#8B949E" />
    <line x1="34.364" y1="80.364" x2="88.364" y2="26.364" stroke-dasharray="7 5" opacity="0.9" stroke="#C4CBD2" />
  </g>
  <g fill="#6F7881" stroke="none">
    <circle cx="27" cy="22" r="3.5" />
    <circle cx="41" cy="17" r="3.5" />
    <circle cx="57" cy="22" r="3.5" />
    <circle cx="31" cy="38" r="3.5" />
    <circle cx="49.322" cy="35" r="3.5" />
  </g>
  <g fill="#A1A8B0" stroke="none">
    <rect x="66.228" y="48.5" width="7" height="7" rx="1.3" ry="1.3" />
    <rect x="79.5" y="38.5" width="7" height="7" rx="1.3" ry="1.3" />
    <rect x="58.5" y="60.5" width="7" height="7" rx="1.3" ry="1.3" />
    <rect x="74.5" y="57.5" width="7" height="7" rx="1.3" ry="1.3" />
    <rect x="67.5" y="74.5" width="7" height="7" rx="1.3" ry="1.3" />
    <rect x="86.5" y="67.5" width="7" height="7" rx="1.3" ry="1.3" />
  </g>
</svg>
