<?xml version="1.0" encoding="UTF-8" standalone="no"?>
<!-- Created with Inkscape (http://www.inkscape.org/) -->

<svg
   version="1.1"
   id="svg1"
   width="495.06168"
   height="480.94467"
   viewBox="0 0 495.06167 480.94466"
   sodipodi:docname="study2_results_ses02ses01timeres.svg"
   inkscape:version="1.3.2 (091e20e, 2023-11-25)"
   inkscape:export-filename="study2_results_ses02ses01timeres.png"
   inkscape:export-xdpi="399.21432"
   inkscape:export-ydpi="399.21432"
   xmlns:inkscape="http://www.inkscape.org/namespaces/inkscape"
   xmlns:sodipodi="http://sodipodi.sourceforge.net/DTD/sodipodi-0.dtd"
   xmlns:xlink="http://www.w3.org/1999/xlink"
   xmlns="http://www.w3.org/2000/svg"
   xmlns:svg="http://www.w3.org/2000/svg">
  <defs
     id="defs1">
    <clipPath
       id="p10f3f314cd">
      <rect
         x="505.07312"
         y="561.25983"
         width="238.11023"
         height="238.11023"
         id="rect636-3" />
    </clipPath>
    <clipPath
       id="clipPath1">
      <rect
         x="505.07312"
         y="561.25983"
         width="238.11023"
         height="238.11023"
         id="rect1" />
    </clipPath>
    <clipPath
       id="clipPath2">
      <rect
         x="505.07312"
         y="561.25983"
         width="238.11023"
         height="238.11023"
         id="rect2" />
    </clipPath>
    <clipPath
       id="clipPath3">
      <rect
         x="505.07312"
         y="561.25983"
         width="238.11023"
         height="238.11023"
         id="rect3" />
    </clipPath>
    <clipPath
       id="clipPath4">
      <rect
         x="505.07312"
         y="561.25983"
         width="238.11023"
         height="238.11023"
         id="rect4" />
    </clipPath>
    <clipPath
       id="clipPath5">
      <rect
         x="505.07312"
         y="561.25983"
         width="238.11023"
         height="238.11023"
         id="rect5" />
    </clipPath>
    <clipPath
       id="clipPath6">
      <rect
         x="505.07312"
         y="561.25983"
         width="238.11023"
         height="238.11023"
         id="rect6" />
    </clipPath>
    <clipPath
       id="clipPath7">
      <rect
         x="505.07312"
         y="561.25983"
         width="238.11023"
         height="238.11023"
         id="rect7" />
    </clipPath>
    <pattern
       inkscape:collect="always"
       xlink:href="#Strips1_1-53"
       preserveAspectRatio="xMidYMid"
       id="pattern249-8"
       patternTransform="matrix(2.1443942,2.1443942,-2.1443942,2.1443942,1160.3688,12.48255)"
       x="0"
       y="0" />
    <pattern
       inkscape:collect="always"
       patternUnits="userSpaceOnUse"
       width="2"
       height="10"
       patternTransform="translate(0,0) scale(2,2)"
       preserveAspectRatio="xMidYMid"
       id="Strips1_1-53"
       style="fill:#7b51a0"
       inkscape:stockid="Stripes 01 (1:1)"
       inkscape:isstock="true"
       inkscape:label="Stripes 01 (1:1)">
      <rect
   style="stroke:none"
   x="0"
   y="-0.5"
   width="1"
   height="11"
   id="rect248-7" />

    </pattern>
    <clipPath
       id="p48bb4ad1b9-1">
      <rect
         x="57.559502"
         y="33.027"
         width="646.88849"
         height="272.54099"
         id="rect128-0-2" />
    </clipPath>
    <clipPath
       id="p629467783c-5">
      <rect
         x="57.559502"
         y="33.027"
         width="646.88849"
         height="272.54099"
         id="rect134-2-1" />
    </clipPath>
    <clipPath
       id="pa8502b931d-4">
      <rect
         x="57.559502"
         y="33.027"
         width="646.88849"
         height="272.54099"
         id="rect130-8-67" />
    </clipPath>
  </defs>
  <sodipodi:namedview
     id="namedview1"
     pagecolor="#ffffff"
     bordercolor="#ffffff"
     borderopacity="0"
     inkscape:showpageshadow="0"
     inkscape:pageopacity="0"
     inkscape:pagecheckerboard="1"
     inkscape:deskcolor="#999087"
     showgrid="false"
     inkscape:zoom="0.1285454"
     inkscape:cx="400.63667"
     inkscape:cy="420.08505"
     inkscape:window-width="1536"
     inkscape:window-height="655"
     inkscape:window-x="0"
     inkscape:window-y="0"
     inkscape:window-maximized="0"
     inkscape:current-layer="g1"
     inkscape:export-bgcolor="#ffffffff">
    <inkscape:grid
       id="grid1"
       units="px"
       originx="-514.37839"
       originy="-498.85426"
       spacingx="0.99999998"
       spacingy="0.99999997"
       empcolor="#0099e5"
       empopacity="0.30196078"
       color="#0099e5"
       opacity="0.14901961"
       empspacing="5"
       dotted="false"
       gridanglex="30"
       gridanglez="30"
       visible="false" />
  </sodipodi:namedview>
  <g
     inkscape:groupmode="layer"
     inkscape:label="Image"
     id="g1"
     transform="translate(-514.3784,-498.85427)">
    <g
       id="g2" />
    <g
       id="g3"
       style="stroke-linecap:butt;stroke-linejoin:round"
       transform="translate(-1719.9904,-637.49466)">
      <path
         d="m 2345.4412,1542.5318 h 382.984 v -382.9841 h -382.984 z"
         style="fill:#ffffff;stroke-width:1.60843;stroke-linecap:butt;stroke-linejoin:round"
         id="path208-1" />
      <path
         d="M 505.07312,775.06533 H 743.18335"
         clip-path="url(#p10f3f314cd)"
         style="fill:none;stroke:#808080;stroke-width:1.5;stroke-linecap:butt;stroke-linejoin:round;stroke-dasharray:5.55, 2.4;stroke-dashoffset:0"
         id="path209-0"
         transform="matrix(1.6084318,0,0,1.6084318,1533.0654,256.79954)" />
      <path
         d="M 529.87626,799.37008 V 561.25984"
         clip-path="url(#p10f3f314cd)"
         style="fill:none;stroke:#a9a9a9;stroke-linecap:butt;stroke-linejoin:round;stroke-dasharray:3.7, 1.6;stroke-dashoffset:0"
         id="path210-4"
         transform="matrix(1.6084318,0,0,1.6084318,1533.0654,256.79954)" />
      <path
         d="M 629.08886,799.37008 V 561.25984"
         clip-path="url(#p10f3f314cd)"
         style="fill:none;stroke:#a9a9a9;stroke-linecap:butt;stroke-linejoin:round;stroke-dasharray:3.7, 1.6;stroke-dashoffset:0"
         id="path211-5"
         transform="matrix(1.6084318,0,0,1.6084318,1533.0654,256.79954)" />
      <path
         d="M 660.0928,799.37008 V 561.25984"
         clip-path="url(#p10f3f314cd)"
         style="fill:none;stroke:#a9a9a9;stroke-linecap:butt;stroke-linejoin:round;stroke-dasharray:3.7, 1.6;stroke-dashoffset:0"
         id="path212-0"
         transform="matrix(1.6084318,0,0,1.6084318,1533.0654,256.79954)" />
      <path
         d="M 684.89595,799.37008 V 561.25984"
         clip-path="url(#p10f3f314cd)"
         style="fill:none;stroke:#a9a9a9;stroke-linecap:butt;stroke-linejoin:round;stroke-dasharray:3.7, 1.6;stroke-dashoffset:0"
         id="path213-1"
         transform="matrix(1.6084318,0,0,1.6084318,1533.0654,256.79954)" />
      <path
         id="use213-5"
         d="m 2338.6555,1569.8451 q 0,-4.7298 1.1963,-7.3033 1.6637,-3.8351 5.5893,-3.8351 0.8343,0 1.7039,0.2312 0.8746,0.2262 1.9804,1.0907 1.1058,0.8645 1.7843,2.2769 1.2868,2.7344 1.2868,7.5396 0,4.6946 -1.1963,7.258 -1.7441,3.7396 -5.5893,3.7396 -1.4476,0 -2.9153,-0.7389 -1.4677,-0.7388 -2.3925,-2.5131 -1.4476,-2.6539 -1.4476,-7.7456 z m 2.669,-0.3921 q 0,4.8555 0.3468,6.7856 0.3921,2.0909 1.4677,2.9957 1.0756,0.8997 2.2719,0.8997 1.2867,0 2.3624,-0.9651 1.0756,-0.965 1.4074,-3.056 0.3619,-2.0558 0.3468,-6.6599 0,-4.4785 -0.3167,-6.2679 -0.4222,-2.0909 -1.5481,-2.9303 -1.1209,-0.8394 -2.2518,-0.8394 -0.4272,0 -0.8746,0.1256 -0.4473,0.1257 -1.0907,0.4876 -0.6434,0.3619 -1.141,1.2566 -0.4926,0.8947 -0.7288,2.2468 -0.2513,1.7441 -0.2513,5.921 z"
         style="fill:#262626;stroke-width:0.00502635;stroke-linecap:butt;stroke-linejoin:round" />
      <path
         id="use214-0"
         d="m 2418.0819,1574.8262 v -0.9902 l 9.8818,-15.0941 q 0.2513,-0.3921 0.6434,-0.377 0.3619,0 0.4373,0.1407 0.08,0.1408 0.08,0.6886 v 14.6418 h 3.2219 v 0.9902 h -3.2219 v 2.7946 q 0,0.9249 0.382,1.2265 0.387,0.2965 2.0507,0.2965 h 0.6786 v 0.9902 q -1.3219,-0.095 -4.3679,-0.095 -3.0309,0 -4.3528,0.095 v -0.9902 h 0.6785 q 1.6638,0 2.0558,-0.2915 0.3921,-0.2915 0.3921,-1.2315 v -2.7946 z m 0.9098,-0.9902 h 7.8411 v -12.0029 z"
         style="fill:#262626;stroke-width:0.00502635;stroke-linecap:butt;stroke-linejoin:round" />
      <path
         id="use215-9"
         d="m 2498.3278,1575.2785 q 0,-3.5938 4.6343,-5.921 -1.9955,-1.3521 -2.3574,-1.7441 -1.4124,-1.5683 -1.4124,-3.5336 0,-2.2467 1.704,-3.8099 1.7039,-1.5632 4.1216,-1.5632 2.3071,0 4.0512,1.337 1.7441,1.337 1.7441,3.4581 0,2.9806 -3.8954,4.9912 2.5785,1.6034 3.1918,2.2769 1.5682,1.7442 1.5682,3.9608 0,2.5735 -1.9804,4.3427 -1.9754,1.7693 -4.7097,1.7693 -2.669,0 -4.6645,-1.5531 -1.9954,-1.5582 -1.9954,-4.0111 z m 1.6034,0 q 0,1.9955 1.4978,3.3325 1.4979,1.332 3.5889,1.332 2.0256,0 3.5385,-1.1611 1.518,-1.1611 1.518,-2.8901 0,-0.6736 -0.2262,-1.2516 -0.2262,-0.5831 -0.6736,-1.0455 -0.4473,-0.4674 -0.7237,-0.6785 -0.2765,-0.2111 -0.7942,-0.573 l -3.9557,-2.4981 q -3.7698,2.0909 -3.7698,5.4334 z m 0.6735,-12.4552 q 0,1.538 1.6185,2.6086 l 3.9909,2.5735 q 3.1867,-1.8648 3.1867,-4.5036 0,-1.714 -1.3068,-2.8499 -1.3018,-1.141 -3.1063,-1.141 -1.7743,0 -3.0812,0.9349 -1.3018,0.9349 -1.3018,2.3775 z"
         style="fill:#262626;stroke-width:0.00502635;stroke-linecap:butt;stroke-linejoin:round" />
      <path
         id="use216-8"
         d="m 2571.5818,1561.7727 v -1.0052 q 3.8653,0 5.8557,-2.0608 0.5529,0 0.6434,0.1256 0.095,0.1257 0.095,0.7087 v 18.0497 q 0,0.955 0.4724,1.2566 0.4725,0.2965 2.5283,0.2965 h 1.0203 v 0.9902 q -1.1309,-0.095 -5.2173,-0.095 -4.0814,0 -5.1973,0.095 v -0.9902 h 1.0254 q 2.0256,0 2.5082,-0.2915 0.4875,-0.2915 0.4875,-1.2616 v -16.6674 q -1.6788,0.8494 -4.2221,0.8494 z"
         style="fill:#262626;stroke-width:0.00502635;stroke-linecap:butt;stroke-linejoin:round" />
      <path
         id="use217-8"
         d="m 2586.4095,1580.134 q 0,-0.5831 0.055,-0.754 0.055,-0.1708 0.3066,-0.4423 l 6.1724,-6.876 q 3.3777,-3.805 3.3777,-7.1173 0,-2.1513 -1.1259,-3.6894 -1.1209,-1.5431 -3.1817,-1.5431 -1.4124,0 -2.6087,0.8646 -1.1912,0.8645 -1.7391,2.4026 0.095,-0.03 0.4222,-0.03 0.8042,0 1.2516,0.5026 0.4473,0.5027 0.4473,1.1812 0,0.8595 -0.5579,1.2767 -0.5579,0.4172 -1.1108,0.4172 -0.2162,0 -0.5077,-0.045 -0.2915,-0.05 -0.7489,-0.4976 -0.4524,-0.4474 -0.4524,-1.2466 0,-2.2467 1.704,-4.0361 1.7039,-1.7944 4.3126,-1.7944 2.9504,0 4.8906,1.7542 1.9402,1.7491 1.9402,4.4835 0,0.96 -0.2916,1.8346 -0.2915,0.8695 -0.6785,1.5431 -0.382,0.6735 -1.4174,1.7592 -1.0355,1.0857 -1.8698,1.8547 -0.8294,0.7691 -2.6992,2.4026 l -3.4079,3.3124 h 5.7954 q 2.8248,0 3.046,-0.2513 0.3116,-0.4524 0.7087,-2.86 h 0.8143 l -0.9098,5.5943 z"
         style="fill:#262626;stroke-width:0.00502635;stroke-linecap:butt;stroke-linejoin:round" />
      <path
         id="use218-7"
         d="m 2651.3702,1561.7727 v -1.0052 q 3.8653,0 5.8557,-2.0608 0.5529,0 0.6434,0.1256 0.096,0.1257 0.096,0.7087 v 18.0497 q 0,0.955 0.4724,1.2566 0.4725,0.2965 2.5283,0.2965 h 1.0203 v 0.9902 q -1.1309,-0.095 -5.2173,-0.095 -4.0814,0 -5.1973,0.095 v -0.9902 h 1.0254 q 2.0256,0 2.5082,-0.2915 0.4875,-0.2915 0.4875,-1.2616 v -16.6674 q -1.6788,0.8494 -4.2221,0.8494 z"
         style="fill:#262626;stroke-width:0.00502635;stroke-linecap:butt;stroke-linejoin:round" />
      <path
         id="use219-0"
         d="m 2665.9466,1569.9707 q 0,-5.0565 2.5735,-8.1577 2.5785,-3.1063 5.8909,-3.1063 1.9351,0 3.0108,0.9851 1.0756,0.9802 1.0756,2.4881 0,0.8344 -0.4876,1.1963 -0.4875,0.3568 -0.9901,0.3568 -0.5831,0 -1.0405,-0.392 -0.4524,-0.3921 -0.4524,-1.0958 0,-1.4476 1.7743,-1.4476 -0.8293,-1.2867 -2.8248,-1.2867 -0.6132,0 -1.2415,0.1809 -0.6283,0.181 -1.4476,0.7791 -0.8142,0.5931 -1.4425,1.5381 -0.6283,0.9399 -1.0707,2.7142 -0.4372,1.7743 -0.4372,4.0864 v 0.7691 q 1.3169,-3.1867 4.016,-3.1767 2.7042,0 4.574,2.0608 1.8698,2.0558 1.8698,5.1068 0,3.1264 -1.9502,5.2023 -1.9452,2.0708 -4.6796,2.0708 -1.2214,0 -2.3322,-0.5127 -1.1058,-0.5127 -2.1362,-1.6737 -1.0254,-1.1611 -1.6386,-3.3928 -0.6132,-2.2317 -0.6132,-5.2928 z m 2.9505,2.8902 q 0,3.1565 0.583,4.6644 0.095,0.2513 0.3066,0.5982 0.2111,0.3468 0.5781,0.7941 0.3719,0.4474 0.9851,0.7389 0.6132,0.2865 1.3169,0.2865 2.1513,0 3.1918,-2.0859 0.5478,-1.1611 0.5478,-4.3227 0,-3.2169 -0.583,-4.3981 -0.9852,-1.9904 -2.9957,-1.9904 -1.3521,0 -2.287,0.9249 -0.9349,0.9248 -1.2918,2.1663 -0.3518,1.2415 -0.3518,2.6238 z"
         style="fill:#262626;stroke-width:0.00502635;stroke-linecap:butt;stroke-linejoin:round" />
      <path
         id="use220-3"
         d="m 2446.0644,1602.3854 0.6132,-7.2228 h 19.653 l 0.6082,7.2228 h -0.7992 q -0.1256,-1.4425 -0.2463,-2.2769 -0.1156,-0.8344 -0.392,-1.6235 -0.2714,-0.7942 -0.6132,-1.1762 -0.3368,-0.387 -0.9802,-0.6936 -0.6433,-0.3066 -1.4777,-0.382 -0.8294,-0.08 -2.086,-0.08 -1.4777,0 -1.8396,0.06 -0.3921,0.096 -0.4876,0.3719 -0.09,0.2715 -0.09,0.8545 v 16.9489 q 0,0.6433 0.1307,0.9047 0.1357,0.2564 0.8745,0.4524 0.7389,0.196 2.3725,0.196 h 1.2867 v 0.9902 q -1.3219,-0.096 -6.112,-0.096 -4.76,0 -6.0769,0.096 v -0.9902 h 1.2868 q 1.6335,0 2.3774,-0.196 0.749,-0.196 0.8746,-0.4524 0.1257,-0.2614 0.1257,-0.9047 v -16.9489 q 0,-0.4574 -0.035,-0.6434 -0.03,-0.191 -0.1709,-0.3518 -0.1407,-0.1659 -0.4624,-0.2262 -0.3217,-0.065 -1.7341,-0.065 -1.2566,0 -2.101,0.08 -0.8394,0.075 -1.4828,0.382 -0.6434,0.3066 -0.9801,0.6936 -0.3368,0.382 -0.6133,1.1762 -0.2764,0.7891 -0.387,1.6235 -0.1055,0.8344 -0.2312,2.2769 z"
         style="fill:#262626;stroke-width:0.00502635;stroke-linecap:butt;stroke-linejoin:round" />
      <path
         id="use221-7"
         d="m 2469.0134,1609.8496 q 0,-3.0359 1.9452,-5.1872 1.9503,-2.1513 4.7449,-2.1513 2.8298,0 4.2975,1.8396 1.4677,1.8347 1.4677,4.4735 0,0.4876 -0.1256,0.5831 -0.1257,0.095 -0.6736,0.095 h -8.9871 q 0,3.2822 0.9751,4.8202 1.3521,2.1513 3.6291,2.1513 0.3166,0 0.6936,-0.06 0.377,-0.065 1.146,-0.3368 0.769,-0.2764 1.4426,-1.0153 0.6785,-0.7389 1.0706,-1.9 0.09,-0.4574 0.4071,-0.4423 0.4222,0 0.4222,0.377 0,0.2865 -0.3066,0.9248 -0.3066,0.6334 -0.8896,1.3873 -0.5781,0.754 -1.704,1.3219 -1.1208,0.563 -2.4679,0.563 -2.8298,0 -4.961,-2.1412 -2.1262,-2.1463 -2.1262,-5.3028 z m 2.7042,-1.0254 h 7.63 q 0,-0.6735 -0.1156,-1.4275 -0.1156,-0.7539 -0.4574,-1.7994 -0.3368,-1.0455 -1.1209,-1.704 -0.7841,-0.6584 -1.9502,-0.6584 -0.5177,0 -1.0756,0.2212 -0.558,0.2161 -1.2315,0.7539 -0.6735,0.5328 -1.146,1.7442 -0.4725,1.2063 -0.5328,2.87 z"
         style="fill:#262626;stroke-width:0.00502635;stroke-linecap:butt;stroke-linejoin:round" />
      <path
         id="use222-7"
         d="m 2483.4673,1616.5095 v -4.2423 q 0,-0.3618 0.015,-0.4875 0.015,-0.1257 0.1056,-0.2212 0.095,-0.096 0.2865,-0.096 0.2211,0 0.3066,0.096 0.085,0.095 0.1457,0.4574 0.4876,2.2116 1.5331,3.3828 1.0455,1.1711 2.9454,1.1711 1.8045,0 2.7142,-0.7992 0.9148,-0.8042 0.9148,-2.1211 0,-2.3574 -3.3475,-2.9555 -1.9301,-0.3921 -2.7343,-0.6484 -0.7992,-0.2614 -1.5029,-0.8444 -1.3823,-1.131 -1.3823,-2.7293 0,-1.6034 1.2164,-2.7796 1.2164,-1.1812 3.9155,-1.1812 1.8095,0 3.036,0.9098 0.3568,-0.2815 0.5478,-0.5177 0.4222,-0.3921 0.6434,-0.3921 0.2513,0 0.2966,0.1659 0.05,0.1658 0.05,0.6182 v 3.237 q 0,0.3619 -0.015,0.4875 -0.015,0.1257 -0.1105,0.2111 -0.095,0.085 -0.3016,0.085 -0.3569,0 -0.377,-0.2966 -0.2513,-3.8954 -3.7698,-3.8954 -1.8999,0 -2.7494,0.7339 -0.8444,0.7288 -0.8444,1.719 0,0.5478 0.2563,0.965 0.2614,0.4172 0.5982,0.6585 0.3367,0.2413 0.965,0.4725 0.6283,0.2262 1.0103,0.3066 0.3871,0.075 1.1259,0.2362 2.5786,0.4825 3.6592,1.5381 1.3521,1.3521 1.3521,3.061 0,1.9 -1.2867,3.1918 -1.2868,1.2867 -3.8804,1.2867 -2.0909,0 -3.5486,-1.3973 -0.191,0.1859 -0.3317,0.3518 -0.1408,0.1659 -0.1961,0.2312 -0.055,0.06 -0.07,0.1006 -0.015,0.035 -0.045,0.07 -0.6433,0.6434 -0.8042,0.6434 -0.2513,0 -0.2965,-0.1659 -0.045,-0.1658 -0.045,-0.6182 z"
         style="fill:#262626;stroke-width:0.00502635;stroke-linecap:butt;stroke-linejoin:round" />
      <path
         id="use223-5"
         d="m 2495.6701,1604.0693 v -0.7087 q 1.4777,-0.065 2.4578,-1.1058 0.9802,-1.0455 1.3169,-2.3323 0.3418,-1.2917 0.372,-2.7846 h 0.7992 v 5.9261 h 4.6041 v 1.0053 h -4.6041 v 8.9368 q 0,3.4682 2.1714,3.4682 0.9248,0 1.538,-0.95 0.6132,-0.95 0.6132,-2.6438 v -1.7743 h 0.7992 v 1.8346 q 0,1.7441 -0.8042,3.051 -0.7992,1.3018 -2.3825,1.3018 -0.583,0 -1.156,-0.1508 -0.573,-0.1458 -1.322,-0.5328 -0.7439,-0.387 -1.2063,-1.337 -0.4624,-0.95 -0.4624,-2.3322 v -8.8715 z"
         style="fill:#262626;stroke-width:0.00502635;stroke-linecap:butt;stroke-linejoin:round" />
      <path
         id="use225-4"
         d="m 2518.8384,1604.0693 v -0.7087 q 1.4777,-0.065 2.4579,-1.1058 0.9801,-1.0455 1.3169,-2.3323 0.3418,-1.2917 0.3719,-2.7846 h 0.7992 v 5.9261 h 4.6041 v 1.0053 h -4.6041 v 8.9368 q 0,3.4682 2.1714,3.4682 0.9248,0 1.5381,-0.95 0.6132,-0.95 0.6132,-2.6438 v -1.7743 h 0.7992 v 1.8346 q 0,1.7441 -0.8043,3.051 -0.7991,1.3018 -2.3824,1.3018 -0.5831,0 -1.1561,-0.1508 -0.573,-0.1458 -1.3219,-0.5328 -0.7439,-0.387 -1.2064,-1.337 -0.4624,-0.95 -0.4624,-2.3322 v -8.8715 z"
         style="fill:#262626;stroke-width:0.00502635;stroke-linecap:butt;stroke-linejoin:round" />
      <path
         id="use226-8"
         d="m 2531.7674,1616.9317 v -0.9902 q 1.709,0 2.101,-0.2111 0.3921,-0.2111 0.3921,-1.2516 v -8.6503 q 0,-1.1963 -0.4021,-1.4778 -0.3971,-0.2814 -1.9653,-0.2814 v -1.0053 l 4.4885,-0.3468 v 11.7968 q 0,0.955 0.3468,1.1913 0.3468,0.2362 1.9151,0.2362 v 0.9902 q -3.2822,-0.096 -3.3426,-0.096 -0.4423,0 -3.5335,0.096 z m 1.3471,-19.8239 q 0,-0.6434 0.4926,-1.1661 0.4976,-0.5278 1.2013,-0.5278 0.7087,0 1.2113,0.4775 0.5026,0.4775 0.5026,1.2264 0,0.7439 -0.5026,1.2265 -0.5026,0.4775 -1.2063,0.4775 -0.7389,0 -1.2214,-0.5178 -0.4775,-0.5177 -0.4775,-1.1962 z"
         style="fill:#262626;stroke-width:0.00502635;stroke-linecap:butt;stroke-linejoin:round" />
      <path
         id="use227-4"
         d="m 2540.6383,1616.9317 v -0.9902 q 1.714,0 2.106,-0.2111 0.3921,-0.2111 0.3921,-1.2516 v -8.6201 q 0,-1.1963 -0.4172,-1.4929 -0.4122,-0.2965 -2.0809,-0.2965 v -1.0053 l 4.5237,-0.3468 v 3.3777 q 1.5079,-3.3777 4.76,-3.3777 3.7697,0 4.2874,3.1415 0.5529,-1.2265 1.704,-2.1815 1.156,-0.96 2.9605,-0.96 2.4227,0 3.3777,1.1912 0.7087,0.8042 0.8494,1.6989 0.1408,0.8947 0.1408,3.2169 v 6.1422 q 0.03,0.6786 0.5479,0.8293 0.5227,0.1458 1.9653,0.1458 v 0.9902 q -3.2822,-0.096 -3.5939,-0.096 -0.2513,0 -3.6441,0.096 v -0.9902 q 1.709,0 2.1111,-0.2111 0.4021,-0.2111 0.4021,-1.2516 v -7.4892 q 0,-1.6336 -0.5026,-2.5986 -0.5027,-0.9701 -1.8849,-0.9701 -1.6688,0 -3.0058,1.4023 -1.332,1.3973 -1.332,3.7497 v 5.9059 q 0,1.0405 0.3971,1.2516 0.4021,0.2111 2.1161,0.2111 v 0.9902 q -3.2822,-0.096 -3.6139,-0.096 -0.2514,0 -3.6291,0.096 v -0.9902 q 1.714,0 2.1111,-0.2111 0.4021,-0.2111 0.4021,-1.2516 v -7.4892 q 0,-1.6336 -0.5026,-2.5986 -0.5027,-0.9701 -1.8849,-0.9701 -1.6637,0 -3.0007,1.4023 -1.332,1.3973 -1.332,3.7497 v 5.9059 q 0,1.0405 0.3971,1.2516 0.4021,0.2111 2.101,0.2111 v 0.9902 q -3.2822,-0.096 -3.5989,-0.096 -0.2513,0 -3.629,0.096 z"
         style="fill:#262626;stroke-width:0.00502635;stroke-linecap:butt;stroke-linejoin:round" />
      <path
         id="use228-0"
         d="m 2567.2786,1609.8496 q 0,-3.0359 1.9452,-5.1872 1.9502,-2.1513 4.7448,-2.1513 2.8299,0 4.2976,1.8396 1.4677,1.8347 1.4677,4.4735 0,0.4876 -0.1257,0.5831 -0.1257,0.095 -0.6735,0.095 h -8.9871 q 0,3.2822 0.9751,4.8202 1.3521,2.1513 3.629,2.1513 0.3167,0 0.6936,-0.06 0.377,-0.065 1.146,-0.3368 0.7691,-0.2764 1.4426,-1.0153 0.6786,-0.7389 1.0706,-1.9 0.09,-0.4574 0.4072,-0.4423 0.4222,0 0.4222,0.377 0,0.2865 -0.3066,0.9248 -0.3066,0.6334 -0.8897,1.3873 -0.578,0.754 -1.7039,1.3219 -1.1209,0.563 -2.468,0.563 -2.8298,0 -4.961,-2.1412 -2.1261,-2.1463 -2.1261,-5.3028 z m 2.7041,-1.0254 h 7.63 q 0,-0.6735 -0.1156,-1.4275 -0.1156,-0.7539 -0.4574,-1.7994 -0.3367,-1.0455 -1.1208,-1.704 -0.7841,-0.6584 -1.9503,-0.6584 -0.5177,0 -1.0756,0.2212 -0.5579,0.2161 -1.2315,0.7539 -0.6735,0.5328 -1.146,1.7442 -0.4724,1.2063 -0.5328,2.87 z"
         style="fill:#262626;stroke-width:0.00502635;stroke-linecap:butt;stroke-linejoin:round" />
      <path
         id="use231-2"
         d="m 2604.9008,1616.5095 v -4.2423 q 0,-0.3618 0.015,-0.4875 0.015,-0.1257 0.1055,-0.2212 0.095,-0.096 0.2865,-0.096 0.2212,0 0.3066,0.096 0.085,0.095 0.1458,0.4574 0.4876,2.2116 1.533,3.3828 1.0455,1.1711 2.9455,1.1711 1.8044,0 2.7142,-0.7992 0.9148,-0.8042 0.9148,-2.1211 0,-2.3574 -3.3475,-2.9555 -1.9302,-0.3921 -2.7344,-0.6484 -0.7992,-0.2614 -1.5029,-0.8444 -1.3822,-1.131 -1.3822,-2.7293 0,-1.6034 1.2164,-2.7796 1.2163,-1.1812 3.9155,-1.1812 1.8095,0 3.0359,0.9098 0.3569,-0.2815 0.5479,-0.5177 0.4222,-0.3921 0.6434,-0.3921 0.2513,0 0.2965,0.1659 0.05,0.1658 0.05,0.6182 v 3.237 q 0,0.3619 -0.015,0.4875 -0.015,0.1257 -0.1106,0.2111 -0.096,0.085 -0.3016,0.085 -0.3568,0 -0.3769,-0.2966 -0.2514,-3.8954 -3.7698,-3.8954 -1.9,0 -2.7494,0.7339 -0.8444,0.7288 -0.8444,1.719 0,0.5478 0.2563,0.965 0.2614,0.4172 0.5981,0.6585 0.3368,0.2413 0.9651,0.4725 0.6283,0.2262 1.0103,0.3066 0.387,0.075 1.1259,0.2362 2.5785,0.4825 3.6592,1.5381 1.3521,1.3521 1.3521,3.061 0,1.9 -1.2868,3.1918 -1.2867,1.2867 -3.8803,1.2867 -2.091,0 -3.5486,-1.3973 -0.191,0.1859 -0.3318,0.3518 -0.1407,0.1659 -0.196,0.2312 -0.055,0.06 -0.07,0.1006 -0.015,0.035 -0.045,0.07 -0.6434,0.6434 -0.8042,0.6434 -0.2513,0 -0.2966,-0.1659 -0.045,-0.1658 -0.045,-0.6182 z"
         style="fill:#262626;stroke-width:0.00502635;stroke-linecap:butt;stroke-linejoin:round" />
      <path
         id="use233-2"
         d="m 2274.2278,1504.3114 q 0,-4.7298 1.1963,-7.3033 1.6637,-3.8351 5.5893,-3.8351 0.8343,0 1.7039,0.2312 0.8746,0.2262 1.9804,1.0907 1.1058,0.8645 1.7843,2.2769 1.2868,2.7344 1.2868,7.5396 0,4.6946 -1.1963,7.258 -1.7441,3.7396 -5.5893,3.7396 -1.4476,0 -2.9153,-0.7389 -1.4677,-0.7388 -2.3925,-2.5131 -1.4476,-2.6539 -1.4476,-7.7456 z m 2.669,-0.3921 q 0,4.8555 0.3468,6.7856 0.3921,2.0909 1.4677,2.9957 1.0756,0.8997 2.2719,0.8997 1.2867,0 2.3624,-0.9651 1.0756,-0.965 1.4074,-3.056 0.3619,-2.0558 0.3468,-6.6599 0,-4.4785 -0.3167,-6.2679 -0.4222,-2.0909 -1.5481,-2.9303 -1.1209,-0.8394 -2.2518,-0.8394 -0.4272,0 -0.8746,0.1256 -0.4473,0.1257 -1.0907,0.4876 -0.6434,0.3619 -1.141,1.2566 -0.4926,0.8947 -0.7288,2.2468 -0.2513,1.7441 -0.2513,5.921 z"
         style="fill:#262626;stroke-width:0.00502635;stroke-linecap:butt;stroke-linejoin:round" />
      <path
         id="use234-5"
         d="m 2292.2774,1514.0826 q -0.4875,-0.5177 -0.4875,-1.1913 0,-0.6785 0.4875,-1.1711 0.4876,-0.4976 1.2214,-0.4976 0.7087,0 1.1862,0.4624 0.4826,0.4624 0.4826,1.2114 0,0.7439 -0.5127,1.2264 -0.5077,0.4775 -1.1561,0.4775 -0.7338,0 -1.2214,-0.5177 z"
         style="fill:#262626;stroke-width:0.00502635;stroke-linecap:butt;stroke-linejoin:round" />
      <path
         id="use235-9"
         d="m 2299.2496,1504.3114 q 0,-4.7298 1.1963,-7.3033 1.6637,-3.8351 5.5893,-3.8351 0.8343,0 1.7039,0.2312 0.8746,0.2262 1.9804,1.0907 1.1058,0.8645 1.7843,2.2769 1.2868,2.7344 1.2868,7.5396 0,4.6946 -1.1963,7.258 -1.7441,3.7396 -5.5893,3.7396 -1.4476,0 -2.9153,-0.7389 -1.4677,-0.7388 -2.3925,-2.5131 -1.4476,-2.6539 -1.4476,-7.7456 z m 2.669,-0.3921 q 0,4.8555 0.3468,6.7856 0.392,2.0909 1.4677,2.9957 1.0756,0.8997 2.2719,0.8997 1.2867,0 2.3624,-0.9651 1.0756,-0.965 1.4074,-3.056 0.3619,-2.0558 0.3468,-6.6599 0,-4.4785 -0.3167,-6.2679 -0.4222,-2.0909 -1.5481,-2.9303 -1.1209,-0.8394 -2.2518,-0.8394 -0.4272,0 -0.8746,0.1256 -0.4473,0.1257 -1.0907,0.4876 -0.6434,0.3619 -1.141,1.2566 -0.4926,0.8947 -0.7288,2.2468 -0.2513,1.7441 -0.2513,5.921 z"
         style="fill:#262626;stroke-width:0.00502635;stroke-linecap:butt;stroke-linejoin:round" />
      <path
         id="use236-9"
         d="m 2315.3339,1504.3114 q 0,-4.7298 1.1963,-7.3033 1.6637,-3.8351 5.5893,-3.8351 0.8343,0 1.7039,0.2312 0.8746,0.2262 1.9804,1.0907 1.1058,0.8645 1.7843,2.2769 1.2868,2.7344 1.2868,7.5396 0,4.6946 -1.1963,7.258 -1.7441,3.7396 -5.5893,3.7396 -1.4476,0 -2.9153,-0.7389 -1.4677,-0.7388 -2.3925,-2.5131 -1.4476,-2.6539 -1.4476,-7.7456 z m 2.669,-0.3921 q 0,4.8555 0.3468,6.7856 0.3921,2.0909 1.4677,2.9957 1.0756,0.8997 2.2719,0.8997 1.2868,0 2.3624,-0.9651 1.0756,-0.965 1.4074,-3.056 0.3619,-2.0558 0.3468,-6.6599 0,-4.4785 -0.3167,-6.2679 -0.4222,-2.0909 -1.5481,-2.9303 -1.1209,-0.8394 -2.2518,-0.8394 -0.4272,0 -0.8746,0.1256 -0.4473,0.1257 -1.0907,0.4876 -0.6434,0.3619 -1.141,1.2566 -0.4926,0.8947 -0.7288,2.2468 -0.2513,1.7441 -0.2513,5.921 z"
         style="fill:#262626;stroke-width:0.00502635;stroke-linecap:butt;stroke-linejoin:round" />
      <path
         id="use237-1"
         d="m 2274.2278,1400.9008 q 0,-4.7298 1.1963,-7.3033 1.6637,-3.8351 5.5893,-3.8351 0.8343,0 1.7039,0.2312 0.8746,0.2262 1.9804,1.0907 1.1058,0.8645 1.7843,2.2769 1.2868,2.7344 1.2868,7.5396 0,4.6946 -1.1963,7.258 -1.7441,3.7396 -5.5893,3.7396 -1.4476,0 -2.9153,-0.7389 -1.4677,-0.7388 -2.3925,-2.5131 -1.4476,-2.6539 -1.4476,-7.7456 z m 2.669,-0.3921 q 0,4.8555 0.3468,6.7856 0.3921,2.0909 1.4677,2.9957 1.0756,0.8997 2.2719,0.8997 1.2867,0 2.3624,-0.9651 1.0756,-0.965 1.4074,-3.056 0.3619,-2.0558 0.3468,-6.6599 0,-4.4785 -0.3167,-6.2679 -0.4222,-2.0909 -1.5481,-2.9303 -1.1209,-0.8394 -2.2518,-0.8394 -0.4272,0 -0.8746,0.1256 -0.4473,0.1257 -1.0907,0.4876 -0.6434,0.3619 -1.141,1.2566 -0.4926,0.8947 -0.7288,2.2468 -0.2513,1.7441 -0.2513,5.921 z"
         style="fill:#262626;stroke-width:0.00502635;stroke-linecap:butt;stroke-linejoin:round" />
      <path
         id="use238-1"
         d="m 2292.2774,1410.672 q -0.4875,-0.5177 -0.4875,-1.1913 0,-0.6785 0.4875,-1.1711 0.4876,-0.4976 1.2214,-0.4976 0.7087,0 1.1862,0.4624 0.4826,0.4624 0.4826,1.2114 0,0.7439 -0.5127,1.2264 -0.5077,0.4775 -1.1561,0.4775 -0.7338,0 -1.2214,-0.5177 z"
         style="fill:#262626;stroke-width:0.00502635;stroke-linecap:butt;stroke-linejoin:round" />
      <path
         id="use239-0"
         d="m 2299.2496,1400.9008 q 0,-4.7298 1.1963,-7.3033 1.6637,-3.8351 5.5893,-3.8351 0.8343,0 1.7039,0.2312 0.8746,0.2262 1.9804,1.0907 1.1058,0.8645 1.7843,2.2769 1.2868,2.7344 1.2868,7.5396 0,4.6946 -1.1963,7.258 -1.7441,3.7396 -5.5893,3.7396 -1.4476,0 -2.9153,-0.7389 -1.4677,-0.7388 -2.3925,-2.5131 -1.4476,-2.6539 -1.4476,-7.7456 z m 2.669,-0.3921 q 0,4.8555 0.3468,6.7856 0.392,2.0909 1.4677,2.9957 1.0756,0.8997 2.2719,0.8997 1.2867,0 2.3624,-0.9651 1.0756,-0.965 1.4074,-3.056 0.3619,-2.0558 0.3468,-6.6599 0,-4.4785 -0.3167,-6.2679 -0.4222,-2.0909 -1.5481,-2.9303 -1.1209,-0.8394 -2.2518,-0.8394 -0.4272,0 -0.8746,0.1256 -0.4473,0.1257 -1.0907,0.4876 -0.6434,0.3619 -1.141,1.2566 -0.4926,0.8947 -0.7288,2.2468 -0.2513,1.7441 -0.2513,5.921 z"
         style="fill:#262626;stroke-width:0.00502635;stroke-linecap:butt;stroke-linejoin:round" />
      <path
         id="use240-7"
         d="m 2315.6807,1406.0075 q 0,-0.96 0.5177,-1.3269 0.5177,-0.372 1.0656,-0.372 0.7389,0 1.1712,0.4675 0.4322,0.4624 0.4322,1.1058 0,0.6433 -0.4322,1.1058 -0.4323,0.4624 -1.1712,0.4624 -0.3569,0 -0.5479,-0.06 0.4223,1.4727 1.7191,2.5433 1.2968,1.0656 3.0107,1.0656 2.1513,0 3.4381,-2.0859 0.769,-1.3521 0.769,-4.4132 0,-2.7041 -0.578,-4.0562 -0.8998,-2.0558 -2.7344,-2.0558 -2.6086,0 -4.1467,2.2468 -0.191,0.2814 -0.4071,0.2965 -0.3167,0 -0.3871,-0.1809 -0.07,-0.181 -0.07,-0.6635 v -9.5199 q 0,-0.769 0.3116,-0.769 0.1257,0 0.3971,0.09 2.0256,0.8997 4.2724,0.9148 2.3071,0 4.3779,-0.9449 0.1609,-0.095 0.2513,-0.095 0.3167,0 0.3318,0.3619 0,0.1256 -0.2614,0.4976 -0.2563,0.3669 -0.8092,0.8494 -0.5479,0.4775 -1.2566,0.9349 -0.7037,0.4524 -1.7341,0.759 -1.0254,0.3066 -2.1563,0.3066 -1.3521,0 -2.7343,-0.4222 v 6.2628 q 1.6637,-1.6335 4.0813,-1.6335 2.5786,0 4.3529,2.0759 1.7743,2.0708 1.7743,4.961 0,3.0359 -2.096,5.1118 -2.096,2.0708 -4.9258,2.0708 -2.5735,0 -4.2021,-1.8396 -1.6235,-1.8397 -1.6235,-4.0513 z"
         style="fill:#262626;stroke-width:0.00502635;stroke-linecap:butt;stroke-linejoin:round" />
      <path
         id="use241-6"
         d="m 2274.2278,1297.4901 q 0,-4.7298 1.1963,-7.3033 1.6637,-3.8351 5.5893,-3.8351 0.8343,0 1.7039,0.2312 0.8746,0.2262 1.9804,1.0907 1.1058,0.8645 1.7843,2.2769 1.2868,2.7344 1.2868,7.5396 0,4.6946 -1.1963,7.258 -1.7441,3.7396 -5.5893,3.7396 -1.4476,0 -2.9153,-0.7389 -1.4677,-0.7388 -2.3925,-2.5131 -1.4476,-2.6539 -1.4476,-7.7456 z m 2.669,-0.3921 q 0,4.8555 0.3468,6.7856 0.3921,2.0909 1.4677,2.9957 1.0756,0.8997 2.2719,0.8997 1.2867,0 2.3624,-0.9651 1.0756,-0.965 1.4074,-3.056 0.3619,-2.0558 0.3468,-6.6599 0,-4.4785 -0.3167,-6.2679 -0.4222,-2.0909 -1.5481,-2.9303 -1.1209,-0.8394 -2.2518,-0.8394 -0.4272,0 -0.8746,0.1256 -0.4473,0.1257 -1.0907,0.4876 -0.6434,0.3619 -1.141,1.2566 -0.4926,0.8947 -0.7288,2.2468 -0.2513,1.7441 -0.2513,5.921 z"
         style="fill:#262626;stroke-width:0.00502635;stroke-linecap:butt;stroke-linejoin:round" />
      <path
         id="use242-1"
         d="m 2292.2774,1307.2613 q -0.4875,-0.5177 -0.4875,-1.1913 0,-0.6785 0.4875,-1.1711 0.4876,-0.4976 1.2214,-0.4976 0.7087,0 1.1862,0.4624 0.4826,0.4624 0.4826,1.2114 0,0.7439 -0.5127,1.2264 -0.5077,0.4775 -1.1561,0.4775 -0.7338,0 -1.2214,-0.5177 z"
         style="fill:#262626;stroke-width:0.00502635;stroke-linecap:butt;stroke-linejoin:round" />
      <path
         id="use243-6"
         d="m 2300.853,1289.4177 v -1.0052 q 3.8653,0 5.8557,-2.0608 0.5529,0 0.6434,0.1256 0.095,0.1257 0.095,0.7087 v 18.0497 q 0,0.955 0.4724,1.2566 0.4725,0.2965 2.5283,0.2965 h 1.0203 v 0.9902 q -1.1309,-0.095 -5.2173,-0.095 -4.0814,0 -5.1973,0.095 v -0.9902 h 1.0254 q 2.0256,0 2.5082,-0.2915 0.4875,-0.2915 0.4875,-1.2616 v -16.6674 q -1.6788,0.8494 -4.2221,0.8494 z"
         style="fill:#262626;stroke-width:0.00502635;stroke-linecap:butt;stroke-linejoin:round" />
      <path
         id="use244-3"
         d="m 2315.3339,1297.4901 q 0,-4.7298 1.1963,-7.3033 1.6637,-3.8351 5.5893,-3.8351 0.8343,0 1.7039,0.2312 0.8746,0.2262 1.9804,1.0907 1.1058,0.8645 1.7843,2.2769 1.2868,2.7344 1.2868,7.5396 0,4.6946 -1.1963,7.258 -1.7441,3.7396 -5.5893,3.7396 -1.4476,0 -2.9153,-0.7389 -1.4677,-0.7388 -2.3925,-2.5131 -1.4476,-2.6539 -1.4476,-7.7456 z m 2.669,-0.3921 q 0,4.8555 0.3468,6.7856 0.3921,2.0909 1.4677,2.9957 1.0756,0.8997 2.2719,0.8997 1.2868,0 2.3624,-0.9651 1.0756,-0.965 1.4074,-3.056 0.3619,-2.0558 0.3468,-6.6599 0,-4.4785 -0.3167,-6.2679 -0.4222,-2.0909 -1.5481,-2.9303 -1.1209,-0.8394 -2.2518,-0.8394 -0.4272,0 -0.8746,0.1256 -0.4473,0.1257 -1.0907,0.4876 -0.6434,0.3619 -1.141,1.2566 -0.4926,0.8947 -0.7288,2.2468 -0.2513,1.7441 -0.2513,5.921 z"
         style="fill:#262626;stroke-width:0.00502635;stroke-linecap:butt;stroke-linejoin:round" />
      <path
         id="use245-7"
         d="m 2274.2278,1194.0795 q 0,-4.7298 1.1963,-7.3033 1.6637,-3.8351 5.5893,-3.8351 0.8343,0 1.7039,0.2312 0.8746,0.2262 1.9804,1.0907 1.1058,0.8645 1.7843,2.2769 1.2868,2.7344 1.2868,7.5396 0,4.6946 -1.1963,7.258 -1.7441,3.7396 -5.5893,3.7396 -1.4476,0 -2.9153,-0.7389 -1.4677,-0.7388 -2.3925,-2.5131 -1.4476,-2.6539 -1.4476,-7.7456 z m 2.669,-0.3921 q 0,4.8555 0.3468,6.7856 0.3921,2.0909 1.4677,2.9957 1.0756,0.8997 2.2719,0.8997 1.2867,0 2.3624,-0.9651 1.0756,-0.965 1.4074,-3.056 0.3619,-2.0558 0.3468,-6.6599 0,-4.4785 -0.3167,-6.2679 -0.4222,-2.0909 -1.5481,-2.9303 -1.1209,-0.8394 -2.2518,-0.8394 -0.4272,0 -0.8746,0.1256 -0.4473,0.1257 -1.0907,0.4876 -0.6434,0.3619 -1.141,1.2566 -0.4926,0.8947 -0.7288,2.2468 -0.2513,1.7441 -0.2513,5.921 z"
         style="fill:#262626;stroke-width:0.00502635;stroke-linecap:butt;stroke-linejoin:round" />
      <path
         id="use246-3"
         d="m 2292.2774,1203.8507 q -0.4875,-0.5177 -0.4875,-1.1913 0,-0.6785 0.4875,-1.1711 0.4876,-0.4976 1.2214,-0.4976 0.7087,0 1.1862,0.4624 0.4826,0.4624 0.4826,1.2114 0,0.7439 -0.5127,1.2264 -0.5077,0.4775 -1.1561,0.4775 -0.7338,0 -1.2214,-0.5177 z"
         style="fill:#262626;stroke-width:0.00502635;stroke-linecap:butt;stroke-linejoin:round" />
      <path
         id="use247-0"
         d="m 2300.853,1186.0071 v -1.0052 q 3.8653,0 5.8557,-2.0608 0.5529,0 0.6434,0.1256 0.095,0.1257 0.095,0.7087 v 18.0497 q 0,0.955 0.4724,1.2566 0.4725,0.2965 2.5283,0.2965 h 1.0203 v 0.9902 q -1.1309,-0.096 -5.2173,-0.096 -4.0814,0 -5.1973,0.096 v -0.9902 h 1.0254 q 2.0256,0 2.5082,-0.2915 0.4875,-0.2915 0.4875,-1.2616 v -16.6674 q -1.6788,0.8494 -4.2221,0.8494 z"
         style="fill:#262626;stroke-width:0.00502635;stroke-linecap:butt;stroke-linejoin:round" />
      <path
         id="use248-9"
         d="m 2315.6807,1199.1862 q 0,-0.96 0.5177,-1.3269 0.5177,-0.372 1.0656,-0.372 0.7389,0 1.1712,0.4675 0.4322,0.4624 0.4322,1.1058 0,0.6433 -0.4322,1.1058 -0.4323,0.4624 -1.1712,0.4624 -0.3569,0 -0.5479,-0.06 0.4223,1.4727 1.7191,2.5433 1.2968,1.0656 3.0107,1.0656 2.1513,0 3.4381,-2.0859 0.769,-1.3521 0.769,-4.4132 0,-2.7041 -0.578,-4.0562 -0.8998,-2.0558 -2.7344,-2.0558 -2.6086,0 -4.1467,2.2468 -0.191,0.2814 -0.4071,0.2965 -0.3167,0 -0.3871,-0.1809 -0.07,-0.181 -0.07,-0.6635 v -9.5199 q 0,-0.769 0.3116,-0.769 0.1257,0 0.3971,0.09 2.0256,0.8997 4.2724,0.9148 2.3071,0 4.3779,-0.9449 0.1609,-0.095 0.2513,-0.095 0.3167,0 0.3318,0.3619 0,0.1256 -0.2614,0.4976 -0.2563,0.3669 -0.8092,0.8494 -0.5479,0.4775 -1.2566,0.9349 -0.7037,0.4524 -1.7341,0.759 -1.0254,0.3066 -2.1563,0.3066 -1.3521,0 -2.7343,-0.4222 v 6.2628 q 1.6637,-1.6335 4.0813,-1.6335 2.5786,0 4.3529,2.0759 1.7743,2.0708 1.7743,4.961 0,3.0359 -2.096,5.1118 -2.096,2.0708 -4.9258,2.0708 -2.5735,0 -4.2021,-1.8396 -1.6235,-1.8397 -1.6235,-4.0513 z"
         style="fill:#262626;stroke-width:0.00502635;stroke-linecap:butt;stroke-linejoin:round" />
      <path
         id="use258-9"
         d="m 2250.4531,1379.1225 q -5.4334,0 -9.8164,-2.0306 -1.8397,-0.8595 -3.3777,-2.0709 -1.5381,-1.2113 -2.2116,-2.0105 -0.6786,-0.7992 -0.6786,-1.0203 0,-0.3167 0.3117,-0.3318 0.1608,0 0.5529,0.4273 5.2776,5.1821 15.2197,5.167 9.9723,0 15.0489,-5.0414 0.5479,-0.5529 0.7238,-0.5529 0.3117,0 0.3117,0.3318 0,0.2211 -0.6434,0.9901 -0.6434,0.7691 -2.1211,1.9653 -1.4778,1.1913 -3.2822,2.0558 -4.383,2.1211 -10.0377,2.1211 z"
         style="fill:#262626;stroke-width:0.00502635;stroke-linecap:butt;stroke-linejoin:round" />
      <path
         id="use249-3"
         d="m 2258.4953,1522.3729 h -0.9902 q -0.06,-2.86 -2.1663,-3.5989 l -19.2258,-6.6599 q -0.3921,-0.1257 -0.5177,-0.2664 -0.1257,-0.1407 -0.1257,-0.5026 0,-0.191 0.03,-0.3066 0.03,-0.1157 0.1407,-0.1961 0.1106,-0.08 0.1759,-0.1106 0.06,-0.03 0.2966,-0.1256 l 20.1054,-6.9414 q 0.7992,-0.2513 1.0454,-0.769 0.2413,-0.5177 0.2413,-1.9804 v -0.568 h 0.9902 q -0.095,2.0307 -0.095,4.2121 0,3.4732 0.095,4.6343 h -0.9902 q 0,-2.669 -0.9751,-2.669 -0.06,0 -0.4524,0.091 l -4.9157,1.6989 v 7.9466 l 4.207,1.4929 q 0.1257,0.06 0.4876,0.06 0.6735,0 1.1611,-0.6283 0.4875,-0.6283 0.4875,-1.7894 h 0.9902 q -0.095,3.0962 -0.095,3.7094 0,1.0506 0.095,3.2672 z m -8.3236,-6.4589 v -7.2379 l -10.4649,3.629 z"
         style="fill:#262626;stroke-width:0.00502635;stroke-linecap:butt;stroke-linejoin:round" />
      <path
         id="use250-8"
         d="m 2256.7311,1496.1404 q -2.1312,2.0407 -5.1872,2.0407 -3.0561,0 -5.2626,-2.0106 -2.2066,-2.0105 -2.2066,-4.961 0,-1.9653 0.9349,-3.438 0.9349,-1.4778 2.5232,-1.4778 0.7037,0 1.1058,0.4172 0.4021,0.4122 0.4021,1.0556 0,0.6785 -0.4172,1.0806 -0.4171,0.3971 -1.0605,0.3971 -0.2815,0 -0.563,-0.091 -0.2865,-0.096 -0.583,-0.4473 -0.3016,-0.3569 -0.3468,-0.9701 -1.1762,1.146 -1.1762,3.3777 0,0.03 0,0.06 0,1.6336 1.5381,2.9857 1.538,1.3521 5.0565,1.3521 1.8396,0 3.1816,-0.4474 1.3421,-0.4473 2.0357,-1.1862 0.6886,-0.7389 1.0103,-1.4576 0.3217,-0.7238 0.3217,-1.4326 0,-3.1565 -3.3777,-4.2271 -0.3116,-0.091 -0.3116,-0.4071 0,-0.4223 0.3116,-0.4223 0.1608,0 0.568,0.1257 0.4071,0.1257 1.0505,0.5177 0.6434,0.3921 1.2013,0.95 0.5579,0.5579 0.9701,1.5381 0.4071,0.9801 0.4071,2.2065 0,2.8299 -2.1261,4.8706 z"
         style="fill:#262626;stroke-width:0.00502635;stroke-linecap:butt;stroke-linejoin:round" />
      <path
         id="use251-2"
         d="m 2256.7311,1481.8624 q -2.1312,2.0407 -5.1872,2.0407 -3.0561,0 -5.2626,-2.0106 -2.2066,-2.0105 -2.2066,-4.961 0,-1.9653 0.9349,-3.438 0.9349,-1.4777 2.5232,-1.4777 0.7037,0 1.1058,0.4171 0.4021,0.4122 0.4021,1.0556 0,0.6785 -0.4172,1.0806 -0.4171,0.3971 -1.0605,0.3971 -0.2815,0 -0.563,-0.09 -0.2865,-0.096 -0.583,-0.4474 -0.3016,-0.3569 -0.3468,-0.9701 -1.1762,1.146 -1.1762,3.3777 0,0.03 0,0.06 0,1.6336 1.5381,2.9857 1.538,1.3521 5.0565,1.3521 1.8396,0 3.1816,-0.4474 1.3421,-0.4473 2.0357,-1.1862 0.6886,-0.7389 1.0103,-1.4576 0.3217,-0.7238 0.3217,-1.4325 0,-3.1566 -3.3777,-4.2272 -0.3116,-0.09 -0.3116,-0.4071 0,-0.4222 0.3116,-0.4222 0.1608,0 0.568,0.1256 0.4071,0.1257 1.0505,0.5177 0.6434,0.3921 1.2013,0.95 0.5579,0.5579 0.9701,1.5381 0.4071,0.9801 0.4071,2.2065 0,2.8299 -2.1261,4.8706 z"
         style="fill:#262626;stroke-width:0.00502635;stroke-linecap:butt;stroke-linejoin:round" />
      <path
         id="use252-8"
         d="m 2245.6329,1469.6904 h -1.0053 l -0.3468,-4.7297 h 10.681 q 0.769,0 1.2164,-0.06 0.4473,-0.065 0.965,-0.3216 0.5177,-0.2614 0.754,-0.8646 0.2362,-0.6082 0.2362,-1.5783 0,-1.7441 -1.4275,-2.8197 -1.4325,-1.0757 -3.5536,-1.0757 h -5.73 q -1.1963,0 -1.4929,0.4222 -0.2965,0.4223 -0.2965,2.091 h -1.0053 l -0.3468,-4.7298 h 11.4198 q 1.1913,0 1.4979,-0.4172 0.3066,-0.4172 0.3066,-2.096 h 0.9902 l 0.3619,4.6343 h -2.9052 q 2.8901,1.3521 2.9052,4.1468 0,1.4124 -0.3619,2.3774 -0.3619,0.9651 -0.8092,1.4526 -0.4474,0.4876 -1.3119,0.749 -0.8646,0.2563 -1.3973,0.2915 -0.5328,0.03 -1.5733,0.03 h -4.8203 q -2.1814,0 -2.5634,0.3166 -0.387,0.3116 -0.387,2.1814 z"
         style="fill:#262626;stroke-width:0.00502635;stroke-linecap:butt;stroke-linejoin:round" />
      <path
         id="use253-4"
         d="m 2258.4953,1451.9876 h -0.9902 q 0,-1.7139 -0.2111,-2.111 -0.2111,-0.4021 -1.2516,-0.4021 h -8.6201 q -1.1963,0 -1.4929,0.4172 -0.2965,0.4121 -0.2965,2.0959 h -1.0053 l -0.3468,-4.4784 h 3.5335 q -1.3822,-0.4524 -2.4579,-1.4175 -1.0756,-0.97 -1.0756,-2.5383 0,-1.0404 0.583,-1.7039 0.5781,-0.6685 1.3773,-0.6685 0.7087,0 1.0655,0.4323 0.3519,0.4322 0.3519,0.9499 0,0.5781 -0.3669,0.9802 -0.372,0.4021 -1.0154,0.4021 -0.392,0 -0.6986,-0.181 -0.3066,-0.1809 -0.4172,-0.3216 -0.1106,-0.1408 -0.1407,-0.2363 -0.035,0.06 -0.035,0.3468 0,1.7743 1.7692,2.7897 1.7693,1.0103 4.2825,1.0103 h 4.9459 q 0.9249,0 1.2265,-0.3821 0.2965,-0.387 0.2965,-2.0708 v -0.6735 h 0.9902 q -0.095,1.2867 -0.095,4.0864 0,0.392 0.015,1.0053 0.015,0.6081 0.05,1.4124 0.03,0.7991 0.03,1.2565 z"
         style="fill:#262626;stroke-width:0.00502635;stroke-linecap:butt;stroke-linejoin:round" />
      <path
         id="use254-9"
         d="m 2255.4343,1438.9644 q -2.7344,0 -4.182,-3.2169 -0.9248,-1.9351 -1.1611,-5.9261 h -1.1761 q -1.9955,0 -3.056,1.0455 -1.0606,1.0455 -1.0606,2.3674 0,2.3524 1.4777,3.4833 0.03,-0.955 0.5127,-1.3018 0.4775,-0.3468 0.9601,-0.3468 0.6484,0 1.0656,0.4021 0.4121,0.4021 0.4121,1.0756 0,0.6434 -0.3971,1.0706 -0.4021,0.4222 -1.1108,0.4222 -1.5682,0 -2.6036,-1.4224 -1.0405,-1.4225 -1.0405,-3.4481 0,-2.6388 1.7743,-4.3981 0.5529,-0.5478 1.2616,-0.8243 0.7037,-0.2764 1.1661,-0.3066 0.4625,-0.03 1.3773,-0.03 h 6.4236 q 0.186,0 0.5027,-0.06 0.3116,-0.065 0.7137,-0.3568 0.4021,-0.2916 0.4021,-0.7791 0,-1.1611 -2.0608,-1.146 h -1.8045 v -0.8143 h 1.8045 q 1.714,0 2.3825,0.9047 0.6685,0.8998 0.6685,1.7341 0,1.0656 -0.7841,1.7442 -0.7891,0.6735 -1.8598,0.769 1.2265,0.4876 2.0206,1.5934 0.7942,1.1058 0.7942,2.6137 0,1.1611 -0.2915,2.2568 -0.2916,1.0907 -1.1008,1.9955 -0.8092,0.8997 -2.0306,0.8997 z m -0.035,-2.483 q 1.1962,0 1.9653,-0.8445 0.769,-0.8494 0.769,-2.0457 0,-1.3471 -1.0455,-2.5584 -1.0455,-1.2114 -3.1012,-1.2114 h -3.2219 q 0.1256,3.5688 1.5481,5.1169 1.4224,1.5431 3.0862,1.5431 z"
         style="fill:#262626;stroke-width:0.00502635;stroke-linecap:butt;stroke-linejoin:round" />
      <path
         id="use255-1"
         d="m 2256.7311,1421.0907 q -2.1312,2.0407 -5.1872,2.0407 -3.0561,0 -5.2626,-2.0106 -2.2066,-2.0105 -2.2066,-4.961 0,-1.9653 0.9349,-3.438 0.9349,-1.4777 2.5232,-1.4777 0.7037,0 1.1058,0.4171 0.4021,0.4122 0.4021,1.0556 0,0.6785 -0.4172,1.0806 -0.4171,0.3971 -1.0605,0.3971 -0.2815,0 -0.563,-0.091 -0.2865,-0.096 -0.583,-0.4473 -0.3016,-0.3569 -0.3468,-0.9701 -1.1762,1.146 -1.1762,3.3777 0,0.03 0,0.06 0,1.6336 1.5381,2.9857 1.538,1.3521 5.0565,1.3521 1.8396,0 3.1816,-0.4474 1.3421,-0.4473 2.0357,-1.1862 0.6886,-0.7389 1.0103,-1.4576 0.3217,-0.7238 0.3217,-1.4325 0,-3.1566 -3.3777,-4.2272 -0.3116,-0.09 -0.3116,-0.4071 0,-0.4222 0.3116,-0.4222 0.1608,0 0.568,0.1256 0.4071,0.1257 1.0505,0.5177 0.6434,0.3921 1.2013,0.95 0.5579,0.5579 0.9701,1.5381 0.4071,0.9801 0.4071,2.2065 0,2.8299 -2.1261,4.8706 z"
         style="fill:#262626;stroke-width:0.00502635;stroke-linecap:butt;stroke-linejoin:round" />
      <path
         id="use256-6"
         d="m 2262.4862,1409.341 q -0.6785,0 -1.0304,-0.3971 -0.3518,-0.4021 -0.3518,-0.955 0,-0.5781 0.3669,-0.9601 0.3719,-0.387 0.9852,-0.387 1.1912,0 1.347,1.2566 0.5831,-0.6132 0.5831,-1.5079 0,-0.96 -0.7087,-1.7341 -0.7037,-0.7791 -1.3823,-1.1159 -0.6735,-0.3417 -1.8999,-0.8293 -0.955,-0.4524 -1.9,-0.7992 l -11.7516,4.8203 q -0.769,0.3166 -0.9399,0.8042 -0.1709,0.4876 -0.1709,1.8045 h -1.0053 q 0.091,-1.4426 0.091,-3.1264 0,-0.9902 -0.091,-3.5034 h 1.0053 q 0,1.8095 0.8293,1.8095 0.095,0 0.5831,-0.191 l 8.6553,-3.5788 -7.9165,-3.252 q -0.4573,-0.191 -0.769,-0.191 -1.3219,0 -1.3822,1.5079 h -1.0053 q 0.091,-2.1211 0.091,-2.7947 0,-1.3169 -0.091,-2.4026 h 1.0053 q 0,2.1513 2.0557,2.9857 l 13.727,5.6697 q 3.6592,1.5381 3.6793,4.1166 0,1.2214 -0.754,2.0859 -0.7539,0.8646 -1.8547,0.8646 z"
         style="fill:#262626;stroke-width:0.00502635;stroke-linecap:butt;stroke-linejoin:round" />
      <path
         id="use259-9"
         d="m 2256.7311,1366.6962 q -2.1312,2.0406 -5.1872,2.0406 -3.0561,0 -5.2626,-2.0105 -2.2066,-2.0105 -2.2066,-4.961 0,-1.9653 0.9349,-3.438 0.9349,-1.4778 2.5232,-1.4778 0.7037,0 1.1058,0.4172 0.4021,0.4122 0.4021,1.0556 0,0.6785 -0.4172,1.0806 -0.4171,0.3971 -1.0605,0.3971 -0.2815,0 -0.563,-0.091 -0.2865,-0.095 -0.583,-0.4473 -0.3016,-0.3569 -0.3468,-0.9701 -1.1762,1.146 -1.1762,3.3777 0,0.03 0,0.06 0,1.6336 1.5381,2.9857 1.538,1.3521 5.0565,1.3521 1.8396,0 3.1816,-0.4474 1.3421,-0.4473 2.0357,-1.1862 0.6886,-0.7389 1.0103,-1.4576 0.3217,-0.7238 0.3217,-1.4326 0,-3.1565 -3.3777,-4.2271 -0.3116,-0.091 -0.3116,-0.4072 0,-0.4222 0.3116,-0.4222 0.1608,0 0.568,0.1257 0.4071,0.1257 1.0505,0.5177 0.6434,0.3921 1.2013,0.95 0.5579,0.5579 0.9701,1.5381 0.4071,0.9801 0.4071,2.2065 0,2.8299 -2.1261,4.8706 z"
         style="fill:#262626;stroke-width:0.00502635;stroke-linecap:butt;stroke-linejoin:round" />
      <path
         id="use260-4"
         d="m 2258.4953,1354.5242 h -0.9902 q 0,-1.714 -0.2111,-2.106 -0.2111,-0.3921 -1.2516,-0.3921 h -16.7276 q -1.1913,0 -1.4878,0.4172 -0.3016,0.4122 -0.3016,2.0809 h -1.0053 l -0.3468,-4.6192 h 11.1836 v -0.03 q -1.1611,-0.5177 -2.1161,-1.6788 -0.96,-1.1661 -0.96,-2.9554 0,-2.4177 1.1912,-3.3778 0.8042,-0.7087 1.6989,-0.8544 0.8947,-0.1508 3.2169,-0.1508 h 6.1422 q 0.6786,-0.03 0.8293,-0.5479 0.1458,-0.5227 0.1458,-1.9653 h 0.9902 q -0.095,3.2822 -0.095,3.6139 0,0.2514 0.095,3.6291 h -0.9902 q 0,-1.714 -0.2111,-2.1111 -0.2111,-0.4021 -1.2516,-0.4021 h -7.4892 q -1.6336,0 -2.5986,0.5026 -0.9701,0.5027 -0.9701,1.8849 0,1.6637 1.4023,3.0007 1.3973,1.332 3.7497,1.332 h 5.9059 q 1.0405,0 1.2516,-0.3971 0.2111,-0.4021 0.2111,-2.101 h 0.9902 q -0.095,3.2822 -0.095,3.5989 0,0.2513 0.095,3.629 z"
         style="fill:#262626;stroke-width:0.00502635;stroke-linecap:butt;stroke-linejoin:round" />
      <path
         id="use261-6"
         d="m 2255.4343,1336.364 q -2.7344,0 -4.182,-3.2168 -0.9248,-1.9352 -1.1611,-5.9261 h -1.1761 q -1.9955,0 -3.056,1.0455 -1.0606,1.0454 -1.0606,2.3674 0,2.3523 1.4777,3.4832 0.03,-0.955 0.5127,-1.3018 0.4775,-0.3468 0.9601,-0.3468 0.6484,0 1.0656,0.4021 0.4121,0.4021 0.4121,1.0756 0,0.6434 -0.3971,1.0707 -0.4021,0.4222 -1.1108,0.4222 -1.5682,0 -2.6036,-1.4225 -1.0405,-1.4224 -1.0405,-3.4481 0,-2.6388 1.7743,-4.398 0.5529,-0.5479 1.2616,-0.8243 0.7037,-0.2765 1.1661,-0.3066 0.4625,-0.03 1.3773,-0.03 h 6.4236 q 0.186,0 0.5027,-0.06 0.3116,-0.065 0.7137,-0.3569 0.4021,-0.2915 0.4021,-0.7791 0,-1.1611 -2.0608,-1.146 h -1.8045 v -0.8143 h 1.8045 q 1.714,0 2.3825,0.9048 0.6685,0.8997 0.6685,1.7341 0,1.0656 -0.7841,1.7441 -0.7891,0.6736 -1.8598,0.7691 1.2265,0.4875 2.0206,1.5933 0.7942,1.1058 0.7942,2.6137 0,1.1611 -0.2915,2.2568 -0.2916,1.0908 -1.1008,1.9955 -0.8092,0.8997 -2.0306,0.8997 z m -0.035,-2.483 q 1.1962,0 1.9653,-0.8444 0.769,-0.8495 0.769,-2.0458 0,-1.347 -1.0455,-2.5584 -1.0455,-1.2113 -3.1012,-1.2113 h -3.2219 q 0.1256,3.5687 1.5481,5.1168 1.4224,1.5431 3.0862,1.5431 z"
         style="fill:#262626;stroke-width:0.00502635;stroke-linecap:butt;stroke-linejoin:round" />
      <path
         id="use262-9"
         d="m 2258.4953,1320.5964 h -0.9902 q 0,-1.714 -0.2111,-2.1061 -0.2111,-0.392 -1.2516,-0.392 h -8.6201 q -1.1963,0 -1.4929,0.4172 -0.2965,0.4121 -0.2965,2.0809 h -1.0053 l -0.3468,-4.5238 h 3.3777 q -3.3777,-1.5079 -3.3777,-4.7599 0,-2.4177 1.1912,-3.3777 0.8042,-0.7087 1.6989,-0.8545 0.8947,-0.1508 3.2169,-0.1508 h 6.1422 q 0.6786,-0.03 0.8293,-0.5479 0.1458,-0.5227 0.1458,-1.9653 h 0.9902 q -0.095,3.2822 -0.095,3.614 0,0.2513 0.095,3.629 h -0.9902 q 0,-1.714 -0.2111,-2.1111 -0.2111,-0.4021 -1.2516,-0.4021 h -7.4892 q -1.6336,0 -2.5986,0.5027 -0.9701,0.5026 -0.9701,1.8849 0,1.6637 1.4023,3.0007 1.3973,1.332 3.7497,1.332 h 5.9059 q 1.0405,0 1.2516,-0.3971 0.2111,-0.4021 0.2111,-2.101 h 0.9902 q -0.095,3.2822 -0.095,3.5988 0,0.2514 0.095,3.6291 z"
         style="fill:#262626;stroke-width:0.00502635;stroke-linecap:butt;stroke-linejoin:round" />
      <path
         id="use263-7"
         d="m 2256.7311,1300.6468 q -2.1312,2.0407 -5.1872,2.0407 -3.0561,0 -5.2626,-2.0106 -2.2066,-2.0105 -2.2066,-4.961 0,-1.9653 0.9349,-3.438 0.9349,-1.4777 2.5232,-1.4777 0.7037,0 1.1058,0.4171 0.4021,0.4122 0.4021,1.0556 0,0.6785 -0.4172,1.0806 -0.4171,0.3971 -1.0605,0.3971 -0.2815,0 -0.563,-0.09 -0.2865,-0.096 -0.583,-0.4474 -0.3016,-0.3569 -0.3468,-0.9701 -1.1762,1.146 -1.1762,3.3777 0,0.03 0,0.06 0,1.6336 1.5381,2.9857 1.538,1.3521 5.0565,1.3521 1.8396,0 3.1816,-0.4474 1.3421,-0.4473 2.0357,-1.1862 0.6886,-0.7389 1.0103,-1.4576 0.3217,-0.7238 0.3217,-1.4325 0,-3.1566 -3.3777,-4.2272 -0.3116,-0.09 -0.3116,-0.4071 0,-0.4222 0.3116,-0.4222 0.1608,0 0.568,0.1256 0.4071,0.1257 1.0505,0.5177 0.6434,0.3921 1.2013,0.95 0.5579,0.5579 0.9701,1.5381 0.4071,0.9801 0.4071,2.2065 0,2.8299 -2.1261,4.8706 z"
         style="fill:#262626;stroke-width:0.00502635;stroke-linecap:butt;stroke-linejoin:round" />
      <path
         id="use264-9"
         d="m 2251.4132,1288.6156 q -3.0359,0 -5.1872,-1.9452 -2.1513,-1.9502 -2.1513,-4.7449 0,-2.8298 1.8396,-4.2975 1.8347,-1.4677 4.4735,-1.4677 0.4876,0 0.5831,0.1256 0.096,0.1257 0.096,0.6736 v 8.9871 q 3.2822,0 4.8202,-0.9751 2.1513,-1.3521 2.1513,-3.629 0,-0.3167 -0.06,-0.6937 -0.065,-0.377 -0.3368,-1.146 -0.2764,-0.769 -1.0153,-1.4426 -0.7389,-0.6785 -1.9,-1.0706 -0.4574,-0.09 -0.4423,-0.4071 0,-0.4222 0.377,-0.4222 0.2865,0 0.9248,0.3066 0.6334,0.3066 1.3873,0.8897 0.754,0.578 1.3219,1.7039 0.563,1.1209 0.563,2.4679 0,2.8299 -2.1412,4.961 -2.1463,2.1262 -5.3028,2.1262 z m -1.0254,-2.7042 v -7.63 q -0.6735,0 -1.4275,0.1156 -0.7539,0.1156 -1.7994,0.4574 -1.0455,0.3368 -1.704,1.1209 -0.6584,0.7841 -0.6584,1.9502 0,0.5177 0.2212,1.0757 0.2161,0.5579 0.7539,1.2314 0.5328,0.6735 1.7442,1.146 1.2063,0.4725 2.87,0.5328 z"
         style="fill:#262626;stroke-width:0.00502635;stroke-linecap:butt;stroke-linejoin:round" />
      <path
         id="use266-0"
         d="m 2258.0731,1263.465 h -4.2423 q -0.3618,0 -0.4875,-0.015 -0.1257,-0.015 -0.2212,-0.1055 -0.095,-0.095 -0.095,-0.2865 0,-0.2212 0.095,-0.3067 0.095,-0.085 0.4574,-0.1457 2.2116,-0.4876 3.3828,-1.5331 1.1711,-1.0454 1.1711,-2.9454 0,-1.8045 -0.7992,-2.7142 -0.8042,-0.9148 -2.1211,-0.9148 -2.3574,0 -2.9555,3.3475 -0.3921,1.9301 -0.6484,2.7344 -0.2614,0.7992 -0.8444,1.5028 -1.131,1.3823 -2.7293,1.3823 -1.6034,0 -2.7796,-1.2164 -1.1812,-1.2164 -1.1812,-3.9155 0,-1.8095 0.9098,-3.0359 -0.2815,-0.3569 -0.5177,-0.5479 -0.3921,-0.4222 -0.3921,-0.6434 0,-0.2513 0.1659,-0.2965 0.1658,-0.05 0.6182,-0.05 h 3.237 q 0.3619,0 0.4875,0.015 0.1257,0.015 0.2111,0.1106 0.085,0.095 0.085,0.3015 0,0.3569 -0.2966,0.377 -3.8954,0.2513 -3.8954,3.7698 0,1.8999 0.7339,2.7494 0.7288,0.8444 1.719,0.8444 0.5478,0 0.965,-0.2563 0.4172,-0.2614 0.6585,-0.5982 0.2413,-0.3367 0.4725,-0.965 0.2262,-0.6283 0.3066,-1.0103 0.075,-0.387 0.2362,-1.1259 0.4825,-2.5785 1.5381,-3.6592 1.3521,-1.3521 3.061,-1.3521 1.9,0 3.1918,1.2868 1.2867,1.2867 1.2867,3.8803 0,2.091 -1.3973,3.5486 0.1859,0.191 0.3518,0.3317 0.1659,0.1408 0.2312,0.1961 0.06,0.055 0.1006,0.07 0.035,0.015 0.07,0.045 0.6434,0.6434 0.6434,0.8042 0,0.2513 -0.1659,0.2966 -0.1658,0.045 -0.6182,0.045 z"
         style="fill:#262626;stroke-width:0.00502635;stroke-linecap:butt;stroke-linejoin:round" />
      <path
         id="use267-3"
         d="m 2245.6329,1250.8401 h -1.0053 l -0.3468,-4.7298 h 10.681 q 0.769,0 1.2164,-0.06 0.4473,-0.065 0.965,-0.3216 0.5177,-0.2614 0.754,-0.8646 0.2362,-0.6082 0.2362,-1.5782 0,-1.7442 -1.4275,-2.8198 -1.4325,-1.0757 -3.5536,-1.0757 h -5.73 q -1.1963,0 -1.4929,0.4222 -0.2965,0.4223 -0.2965,2.091 h -1.0053 l -0.3468,-4.7298 h 11.4198 q 1.1913,0 1.4979,-0.4172 0.3066,-0.4172 0.3066,-2.096 h 0.9902 l 0.3619,4.6343 h -2.9052 q 2.8901,1.3521 2.9052,4.1468 0,1.4124 -0.3619,2.3774 -0.3619,0.9651 -0.8092,1.4526 -0.4474,0.4876 -1.3119,0.749 -0.8646,0.2563 -1.3973,0.2915 -0.5328,0.03 -1.5733,0.03 h -4.8203 q -2.1814,0 -2.5634,0.3166 -0.387,0.3117 -0.387,2.1815 z"
         style="fill:#262626;stroke-width:0.00502635;stroke-linecap:butt;stroke-linejoin:round" />
      <path
         id="use268-8"
         d="m 2237.5254,1233.1373 h -1.0053 l -0.3468,-4.6343 h 10.1934 q -2.0859,-1.8698 -2.0859,-4.4132 0,-2.7645 2.1211,-4.7901 2.1211,-2.0256 5.152,-2.0256 3.0611,0 5.1822,2.1211 2.1211,2.1161 2.1211,5.0565 0,2.669 -2.3574,4.2071 1.9653,1.1309 1.9955,1.1611 v 0.8042 h -19.1805 q -1.1913,0 -1.4878,0.4272 -0.3016,0.4222 -0.3016,2.086 z m 17.3107,-4.7298 q 0.6735,0 1.3521,-0.4524 1.9452,-1.2767 1.9452,-3.3476 0,-0.015 0,-0.03 0,-2.2468 -2.0558,-3.6441 -1.5431,-0.9902 -4.5589,-0.9902 -2.9806,0 -4.4734,0.9248 -2.0608,1.2868 -2.0608,3.3777 0,2.3574 2.0608,3.8 0.5177,0.3619 1.1611,0.3619 z"
         style="fill:#262626;stroke-width:0.00502635;stroke-linecap:butt;stroke-linejoin:round" />
      <path
         id="use269-6"
         d="m 2245.6329,1215.5752 h -0.7087 q -0.065,-1.4778 -1.1058,-2.4579 -1.0455,-0.9801 -2.3323,-1.3169 -1.2917,-0.3418 -2.7846,-0.372 v -0.7991 h 5.9261 v -4.6042 h 1.0053 v 4.6042 h 8.9368 q 3.4682,0 3.4682,-2.1714 0,-0.9249 -0.95,-1.5381 -0.95,-0.6132 -2.6438,-0.6132 h -1.7743 v -0.7992 h 1.8346 q 1.7441,0 3.051,0.8042 1.3018,0.7992 1.3018,2.3825 0,0.5831 -0.1508,1.1561 -0.1458,0.573 -0.5328,1.3219 -0.387,0.7439 -1.337,1.2063 -0.95,0.4625 -2.3322,0.4625 h -8.8715 z"
         style="fill:#262626;stroke-width:0.00502635;stroke-linecap:butt;stroke-linejoin:round" />
      <path
         id="use270-8"
         d="m 2258.4953,1202.8221 h -0.9902 q 0,-1.714 -0.2111,-2.1111 -0.2111,-0.4021 -1.2516,-0.4021 h -8.6201 q -1.1963,0 -1.4929,0.4172 -0.2965,0.4122 -0.2965,2.096 h -1.0053 l -0.3468,-4.4785 h 3.5335 q -1.3822,-0.4524 -2.4579,-1.4174 -1.0756,-0.9701 -1.0756,-2.5383 0,-1.0405 0.583,-1.704 0.5781,-0.6685 1.3773,-0.6685 0.7087,0 1.0655,0.4323 0.3519,0.4323 0.3519,0.95 0,0.578 -0.3669,0.9801 -0.372,0.4021 -1.0154,0.4021 -0.392,0 -0.6986,-0.1809 -0.3066,-0.181 -0.4172,-0.3217 -0.1106,-0.1407 -0.1407,-0.2363 -0.035,0.06 -0.035,0.3469 0,1.7743 1.7692,2.7896 1.7693,1.0103 4.2825,1.0103 h 4.9459 q 0.9249,0 1.2265,-0.382 0.2965,-0.387 0.2965,-2.0709 v -0.6735 h 0.9902 q -0.095,1.2867 -0.095,4.0864 0,0.3921 0.015,1.0053 0.015,0.6082 0.05,1.4124 0.03,0.7992 0.03,1.2566 z"
         style="fill:#262626;stroke-width:0.00502635;stroke-linecap:butt;stroke-linejoin:round" />
      <path
         id="use271-7"
         d="m 2266.2258,1189.3113 q -0.1608,0 -0.5529,-0.4072 -5.2776,-5.1821 -15.2198,-5.1821 -9.9722,0 -15.0187,4.976 -0.578,0.6133 -0.7539,0.6133 -0.3117,0 -0.3117,-0.3117 0,-0.2211 0.6434,-0.9952 0.6434,-0.7791 2.1211,-1.9653 1.4778,-1.1862 3.2822,-2.0658 4.383,-2.1211 10.0376,-2.1211 5.4335,0 9.8165,2.0256 1.8396,0.8645 3.3777,2.0759 1.5381,1.2063 2.2116,2.0105 0.6786,0.7992 0.6786,1.0354 0,0.3117 -0.3117,0.3117 z"
         style="fill:#262626;stroke-width:0.00502635;stroke-linecap:butt;stroke-linejoin:round" />
      <path
         id="use272-3"
         d="m 2345.4411,1496.127 v 13.7124 l 15.9576,5.8448 15.9577,-16.6227 15.9577,-30.9307 15.9576,-58.0524 15.9577,-16.2541 15.9577,-31.2794 15.9576,-24.0559 15.9577,14.4205 15.9577,43.9087 15.9577,57.328 15.9576,34.3569 15.9577,23.5218 15.9577,6.2496 15.9576,2.3724 15.9577,-35.0517 15.9577,-28.1622 15.9576,-16.2431 15.9577,-3.5054 15.9577,-10.257 15.9577,8.7426 15.9576,2.8196 15.9577,25.6613 15.9577,23.2883 15.9576,21.8777 v -15.4913 0 l -15.9576,-26.4536 -15.9577,-30.5144 -15.9577,-28.1414 -15.9576,-11.7709 -15.9577,-9.4957 -15.9577,2.5097 -15.9577,2.8781 -15.9576,28.4404 -15.9577,40.2311 -15.9577,43.3726 -15.9576,1.4604 -15.9577,-12.9004 -15.9577,-24.8094 -15.9576,-62.3056 -15.9577,-84.93 -15.9577,-52.7539 -15.9577,-22.0559 -15.9576,41.6018 -15.9577,35.2899 -15.9577,32.0771 -15.9576,80.558 -15.9577,39.2864 -15.9577,28.9728 z"
         style="fill:#6e6e6e;fill-opacity:0.3;stroke-width:1.60843;stroke-linecap:butt;stroke-linejoin:round" />
      <path
         d="m 505.07312,774.78185 9.92126,4.53565 9.92126,-14.1739 9.92126,-21.82781 9.92125,-43.08867 9.92126,-15.02433 9.92127,-20.6939 9.92125,-20.41042 9.92126,11.33912 9.92126,30.04868 9.92126,44.22257 9.92126,30.04868 9.92126,15.02433 9.92126,5.95304 9.92126,0.28348 9.92126,-24.37911 9.92126,-21.26086 9.92126,-13.89042 9.92126,-1.98435 9.92126,-3.96869 9.92126,5.66956 9.92126,4.53565 9.92126,16.72521 9.92126,16.7252 9.92126,15.02434"
         clip-path="url(#p10f3f314cd)"
         style="fill:none;stroke:#000000;stroke-width:2.8;stroke-linecap:round;stroke-linejoin:round"
         id="path272-2"
         transform="matrix(1.6084318,0,0,1.6084318,1533.0654,256.79954)" />
      <path
         d="M 2345.4412,1542.5318 V 1159.5477"
         style="fill:none;stroke:#262626;stroke-width:2.01054;stroke-linecap:square;stroke-linejoin:miter"
         id="path273-7" />
      <path
         d="M 2728.4252,1542.5318 V 1159.5477"
         style="fill:none;stroke:#262626;stroke-width:2.01054;stroke-linecap:square;stroke-linejoin:miter"
         id="path274-3" />
      <path
         d="m 2345.4412,1542.5318 h 382.984"
         style="fill:none;stroke:#262626;stroke-width:2.01054;stroke-linecap:square;stroke-linejoin:miter"
         id="path275-3" />
      <path
         d="m 2345.4412,1159.5477 h 382.984"
         style="fill:none;stroke:#262626;stroke-width:2.01054;stroke-linecap:square;stroke-linejoin:miter"
         id="path276-2" />
      <path
         d="m 524.91564,793.41732 h 89.29133"
         clip-path="url(#p10f3f314cd)"
         style="fill:none;stroke:#c49a00;stroke-width:3;stroke-linecap:butt;stroke-linejoin:round"
         id="path277-6"
         transform="matrix(1.6084318,0,0,1.6084318,1533.0654,256.79954)" />
      <path
         d="m 653.89201,793.41732 h 79.37008"
         clip-path="url(#p10f3f314cd)"
         style="fill:none;stroke:#c49a00;stroke-width:3;stroke-linecap:butt;stroke-linejoin:round"
         id="path278-4"
         transform="matrix(1.6084318,0,0,1.6084318,1533.0654,256.79954)" />
      <rect
         style="fill:#3c9553;fill-opacity:0.380392;stroke:#3c9553;stroke-width:0.634698;stroke-linecap:butt;stroke-linejoin:round;stroke-dasharray:none;stroke-opacity:0.0156863;paint-order:markers fill stroke"
         id="rect242-3-3"
         width="158.53224"
         height="22.931055"
         x="2385.8594"
         y="1183.2671" />
      <rect
         style="fill:#7570b3;fill-opacity:0.474114;stroke:#7b51a0;stroke-width:0.319838;stroke-linecap:butt;stroke-linejoin:round;stroke-dasharray:none;stroke-opacity:0.627451;paint-order:markers fill stroke"
         id="rect242-4"
         width="39.711777"
         height="23.245914"
         x="2346.3679"
         y="1160.5378" />
      <rect
         style="fill:url(#pattern249-8);fill-opacity:1;stroke:#7b51a0;stroke-width:0.352021;stroke-linecap:butt;stroke-linejoin:round;stroke-dasharray:none;stroke-opacity:0.105882;paint-order:markers fill stroke"
         id="rect242-8-0"
         width="49.839012"
         height="22.98134"
         x="2544.0317"
         y="1206.7268" />
      <path
         d="m 86.963523,293.17977 90.664467,-0.10969 7.92695,-0.2722 5.94521,-0.41983 4.95434,-0.55639 4.45891,-0.70566 4.45891,-0.93774 3.96347,-1.05672 3.96348,-1.29045 3.96347,-1.54445 3.46804,-1.57346 3.46804,-1.79081 3.46804,-2.01569 3.46804,-2.2459 3.96347,-2.85262 3.96348,-3.15868 3.96347,-3.46241 3.96347,-3.76039 3.96348,-4.04944 4.45891,-4.88624 4.45891,-5.21617 4.95434,-6.15299 5.44978,-7.15896 5.94521,-8.21391 6.44064,-9.28899 7.92695,-11.84744 11.39499,-17.48574 17.3402,-26.60424 8.91781,-13.24898 7.43152,-10.65412 6.93608,-9.55563 6.44064,-8.49413 5.94521,-7.49022 5.94521,-7.13574 5.94521,-6.76908 5.44978,-5.876445 5.44978,-5.559419 5.44977,-5.242394 5.44978,-4.927668 5.44978,-4.617219 5.44977,-4.312725 5.44978,-4.015455 5.44978,-3.724938 5.44978,-3.436562 4.95434,-2.868281 4.95434,-2.610614 4.45891,-2.110915 4.45891,-1.862321 3.96347,-1.425658 3.96347,-1.18826 3.46804,-0.828138 3.46804,-0.615416 3.46804,-0.388428 3.46804,-0.147844 3.46804,0.105306 2.97261,0.300304 2.9726,0.500713 2.97261,0.706309 2.9726,0.916054 2.97261,1.128852 2.97261,1.34358 2.9726,1.559088 3.46804,2.090771 3.46804,2.381053 3.46804,2.666809 3.46804,2.946114 3.46804,3.217176 3.96347,3.99592 3.96348,4.319844 4.45891,5.22284 4.45891,5.577909 4.95434,6.574261 5.44977,7.634719 5.94522,8.735788 6.93607,10.61689 8.42239,13.32215 16.84476,27.19685 11.39499,18.16265 8.42238,13.02273 7.43151,11.09252 6.93608,9.95282 6.44065,8.85694 5.94521,7.82316 5.94521,7.46929 5.94521,7.10528 5.94521,6.73543 5.44978,5.84743 5.44978,5.53573 5.44977,5.22688 5.44978,4.92256 5.44978,4.62419 5.44977,4.33296 5.44978,4.04977 5.44978,3.7754 3.46804,2.26392 v 0"
         clip-path="url(#p48bb4ad1b9-1)"
         style="fill:none;stroke:#3c9553;stroke-width:14.4395;stroke-linecap:round;stroke-linejoin:round;stroke-dasharray:none;stroke-opacity:1"
         id="path72-7-9"
         transform="matrix(0.63490366,0,0,0.19988775,2296.0173,1147.5381)" />
      <path
         d="m 86.963523,272.59016 24.276277,-0.1104 6.44065,-0.27011 4.95434,-0.43582 3.96347,-0.56409 3.46804,-0.69966 3.46804,-0.93513 2.97261,-1.02111 2.9726,-1.25214 2.97261,-1.50962 2.9726,-1.79266 2.97261,-2.10002 2.47717,-2.00118 2.47717,-2.24241 2.97261,-3.02459 2.9726,-3.40374 2.97261,-3.79542 2.9726,-4.1953 2.97261,-4.59846 2.9726,-4.9995 2.97261,-5.39279 3.46804,-6.77039 3.46804,-7.25616 3.96347,-8.8349 4.45891,-10.54002 4.95434,-12.30887 6.44065,-16.63005 15.35846,-39.93065 4.95434,-12.19607 4.45891,-10.42144 3.96348,-8.723465 3.46804,-7.156904 3.46804,-6.668918 3.46804,-6.145801 2.9726,-4.829449 2.97261,-4.409338 2.9726,-3.978028 2.47717,-2.979682 2.47717,-2.671553 2.47718,-2.361847 2.47717,-2.05192 2.47717,-1.743053 2.47717,-1.436454 2.47717,-1.133252 2.47717,-0.834496 1.98174,-0.456096 1.98174,-0.271519 1.98173,-0.09046 2.47718,0.135695 2.47717,0.404529 2.47717,0.664677 2.47717,0.915609 2.47717,1.156869 2.47717,1.388077 2.97261,1.956271 2.9726,2.2559 2.97261,2.536801 3.46804,3.289357 3.46804,3.615719 3.96347,4.493311 3.96348,4.835993 4.4589,5.796219 4.95435,6.812214 5.94521,8.585648 6.93608,10.425516 10.40411,16.0918 16.84477,26.06238 8.42238,12.60593 7.43152,10.72902 6.93607,9.61583 6.44065,8.54812 5.94521,7.54487 5.94521,7.20127 5.94521,6.85162 5.94522,6.50031 5.94521,6.15096 5.94521,5.80655 5.44977,5.02628 5.44978,4.74992 5.94521,4.87582 5.94521,4.56751 5.94521,4.27101 5.94521,3.98665 5.94522,3.71453 5.94521,3.45458 5.94521,3.20656 5.94521,2.97014 6.44064,2.96384 6.44065,2.71314 6.44064,2.47545 6.44065,2.2501 6.93608,2.18459 6.93608,1.95069 6.93608,1.72991 7.43151,1.62265 7.43151,1.39812 7.92695,1.25956 7.92695,1.03619 8.42238,0.87365 8.91782,0.68948 8.91782,0.46758 9.41325,0.2751 9.90868,0.072 10.89956,-0.14804 11.89042,-0.39515 12.88129,-0.65686 14.86303,-0.99118 15.35846,-1.21662 v 0"
         clip-path="url(#p629467783c-5)"
         style="fill:none;stroke:#7b51a0;stroke-width:14.4368;stroke-linecap:round;stroke-linejoin:round;stroke-dasharray:none;stroke-opacity:0.627451"
         id="path72-2"
         transform="matrix(0.63502443,0,0,0.19992578,2296.1178,1128.7124)" />
      <path
         d="m 86.963523,293.17977 332.931817,-0.0995 6.44064,-0.26207 4.45891,-0.37962 3.96348,-0.54477 3.46804,-0.68702 3.46804,-0.92789 2.9726,-1.01824 2.97261,-1.24908 2.9726,-1.50062 2.97261,-1.76955 2.9726,-2.05257 2.97261,-2.34666 2.9726,-2.64919 2.97261,-2.95796 2.97261,-3.27125 2.9726,-3.58765 2.97261,-3.90616 3.46804,-4.96145 3.46804,-5.39767 3.46804,-5.83319 3.46803,-6.26522 3.46804,-6.68962 3.96348,-8.14796 3.96347,-8.65524 4.45891,-10.29095 4.95434,-12.02933 5.94522,-15.07711 8.91781,-23.34335 9.90869,-25.80617 5.44977,-13.6132 4.45891,-10.61769 3.96347,-8.941815 3.96348,-8.397146 3.46804,-6.848824 3.46804,-6.343199 2.9726,-5.009828 2.97261,-4.597359 2.97261,-4.170984 2.9726,-3.733809 2.47717,-2.771866 2.47717,-2.459903 2.47717,-2.146384 2.47718,-1.832624 2.47717,-1.519874 2.47717,-1.209322 1.98174,-0.746051 1.98173,-0.551579 1.98174,-0.359689 1.98174,-0.170756 1.98173,0.01487 1.98174,0.196851 2.47717,0.495959 2.47717,0.765858 2.47717,1.026879 2.47717,1.278501 2.47718,1.520278 2.47717,1.751833 2.9726,2.393005 2.97261,2.692618 2.9726,2.973224 3.46804,3.797779 3.46804,4.122927 3.96348,5.070924 4.45891,6.108822 4.95434,7.216139 5.44977,8.363702 6.44065,10.322233 8.42238,13.96516 13.37673,22.56731 v 0"
         clip-path="url(#pa8502b931d-4)"
         style="fill:none;stroke:#7b51a0;stroke-width:14.4571;stroke-linecap:round;stroke-linejoin:round;stroke-dasharray:none;stroke-opacity:0.803922"
         id="path72-8-4"
         transform="matrix(0.63412994,0,0,0.19964418,2295.8242,1169.2928)" />
    </g>
  </g>
</svg>
