<?xml version="1.0" encoding="UTF-8" standalone="no"?>
<!-- Created with Inkscape (http://www.inkscape.org/) -->

<svg
   version="1.1"
   id="svg1"
   width="915.255"
   height="857.23822"
   viewBox="0 0 915.25499 857.2382"
   sodipodi:docname="study2_results.svg"
   inkscape:version="1.3.2 (091e20e, 2023-11-25)"
   xmlns:inkscape="http://www.inkscape.org/namespaces/inkscape"
   xmlns:sodipodi="http://sodipodi.sourceforge.net/DTD/sodipodi-0.dtd"
   xmlns="http://www.w3.org/2000/svg"
   xmlns:svg="http://www.w3.org/2000/svg">
  <defs
     id="defs1">
    <clipPath
       clipPathUnits="userSpaceOnUse"
       id="clipPath979">
      <g
         id="g980"
         transform="matrix(1.996784,0,0,1.996784,-128.0789,-92.965407)">
        <rect
           x="222.78349"
           y="148.76915"
           width="119.24686"
           height="119.24686"
           id="rect980"
           style="stroke-width:0.500805" />
      </g>
    </clipPath>
    <clipPath
       id="p5576c2794e">
      <rect
         x="316.77167"
         y="204.09448"
         width="238.11023"
         height="238.11023"
         id="rect634-0" />
    </clipPath>
    <clipPath
       id="clipPath1">
      <rect
         x="316.77167"
         y="204.09448"
         width="238.11023"
         height="238.11023"
         id="rect1" />
    </clipPath>
    <clipPath
       clipPathUnits="userSpaceOnUse"
       id="clipPath1065">
      <g
         id="g1066"
         transform="matrix(1.996784,0,0,1.996784,-128.0789,-92.965407)">
        <rect
           x="222.78349"
           y="148.76915"
           width="119.24686"
           height="119.24686"
           id="rect1066"
           style="stroke-width:0.500805" />
      </g>
    </clipPath>
    <clipPath
       clipPathUnits="userSpaceOnUse"
       id="clipPath1063">
      <g
         id="g1064"
         transform="matrix(1.996784,0,0,1.996784,-128.0789,-92.965407)">
        <rect
           x="222.78349"
           y="148.76915"
           width="119.24686"
           height="119.24686"
           id="rect1064"
           style="stroke-width:0.500805" />
      </g>
    </clipPath>
    <clipPath
       clipPathUnits="userSpaceOnUse"
       id="clipPath1061">
      <g
         id="g1062"
         transform="matrix(1.996784,0,0,1.996784,-128.0789,-92.965407)">
        <rect
           x="222.78349"
           y="148.76915"
           width="119.24686"
           height="119.24686"
           id="rect1062"
           style="stroke-width:0.500805" />
      </g>
    </clipPath>
    <clipPath
       clipPathUnits="userSpaceOnUse"
       id="clipPath1059">
      <g
         id="g1060"
         transform="matrix(1.996784,0,0,1.996784,-128.0789,-92.965407)">
        <rect
           x="222.78349"
           y="148.76915"
           width="119.24686"
           height="119.24686"
           id="rect1060"
           style="stroke-width:0.500805" />
      </g>
    </clipPath>
    <clipPath
       clipPathUnits="userSpaceOnUse"
       id="clipPath1057">
      <g
         id="g1058"
         transform="matrix(1.996784,0,0,1.996784,-128.0789,-92.965407)">
        <rect
           x="222.78349"
           y="148.76915"
           width="119.24686"
           height="119.24686"
           id="rect1058"
           style="stroke-width:0.500805" />
      </g>
    </clipPath>
    <clipPath
       clipPathUnits="userSpaceOnUse"
       id="clipPath1055">
      <g
         id="g1056"
         transform="matrix(1.996784,0,0,1.996784,-128.0789,-92.965407)">
        <rect
           x="222.78349"
           y="148.76915"
           width="119.24686"
           height="119.24686"
           id="rect1056"
           style="stroke-width:0.500805" />
      </g>
    </clipPath>
    <clipPath
       clipPathUnits="userSpaceOnUse"
       id="clipPath1053">
      <g
         id="g1054"
         transform="matrix(1.996784,0,0,1.996784,-128.0789,-92.965407)">
        <rect
           x="222.78349"
           y="148.76915"
           width="119.24686"
           height="119.24686"
           id="rect1054"
           style="stroke-width:0.500805" />
      </g>
    </clipPath>
    <clipPath
       clipPathUnits="userSpaceOnUse"
       id="clipPath1051">
      <g
         id="g1052"
         transform="matrix(1.996784,0,0,1.996784,-128.0789,-92.965407)">
        <rect
           x="222.78349"
           y="148.76915"
           width="119.24686"
           height="119.24686"
           id="rect1052"
           style="stroke-width:0.500805" />
      </g>
    </clipPath>
    <clipPath
       clipPathUnits="userSpaceOnUse"
       id="clipPath1049">
      <g
         id="g1050"
         transform="matrix(1.996784,0,0,1.996784,-128.0789,-92.965407)">
        <rect
           x="222.78349"
           y="148.76915"
           width="119.24686"
           height="119.24686"
           id="rect1050"
           style="stroke-width:0.500805" />
      </g>
    </clipPath>
    <clipPath
       clipPathUnits="userSpaceOnUse"
       id="clipPath1047">
      <g
         id="g1048"
         transform="matrix(1.996784,0,0,1.996784,-128.0789,-92.965407)">
        <rect
           x="222.78349"
           y="148.76915"
           width="119.24686"
           height="119.24686"
           id="rect1048"
           style="stroke-width:0.500805" />
      </g>
    </clipPath>
    <clipPath
       clipPathUnits="userSpaceOnUse"
       id="clipPath1045">
      <g
         id="g1046"
         transform="matrix(1.996784,0,0,1.996784,-128.0789,-92.965407)">
        <rect
           x="222.78349"
           y="148.76915"
           width="119.24686"
           height="119.24686"
           id="rect1046"
           style="stroke-width:0.500805" />
      </g>
    </clipPath>
    <clipPath
       clipPathUnits="userSpaceOnUse"
       id="clipPath1043">
      <g
         id="g1044"
         transform="matrix(1.996784,0,0,1.996784,-128.0789,-92.965407)">
        <rect
           x="222.78349"
           y="148.76915"
           width="119.24686"
           height="119.24686"
           id="rect1044"
           style="stroke-width:0.500805" />
      </g>
    </clipPath>
    <clipPath
       clipPathUnits="userSpaceOnUse"
       id="clipPath1041">
      <g
         id="g1042"
         transform="matrix(1.996784,0,0,1.996784,-128.0789,-92.965407)">
        <rect
           x="222.78349"
           y="148.76915"
           width="119.24686"
           height="119.24686"
           id="rect1042"
           style="stroke-width:0.500805" />
      </g>
    </clipPath>
    <clipPath
       clipPathUnits="userSpaceOnUse"
       id="clipPath1039">
      <g
         id="g1040"
         transform="matrix(1.996784,0,0,1.996784,-128.0789,-92.965407)">
        <rect
           x="222.78349"
           y="148.76915"
           width="119.24686"
           height="119.24686"
           id="rect1040"
           style="stroke-width:0.500805" />
      </g>
    </clipPath>
    <clipPath
       clipPathUnits="userSpaceOnUse"
       id="clipPath1037">
      <g
         id="g1038"
         transform="matrix(1.996784,0,0,1.996784,-128.0789,-92.965407)">
        <rect
           x="222.78349"
           y="148.76915"
           width="119.24686"
           height="119.24686"
           id="rect1038"
           style="stroke-width:0.500805" />
      </g>
    </clipPath>
    <clipPath
       clipPathUnits="userSpaceOnUse"
       id="clipPath1035">
      <g
         id="g1036"
         transform="matrix(1.996784,0,0,1.996784,-128.0789,-92.965407)">
        <rect
           x="222.78349"
           y="148.76915"
           width="119.24686"
           height="119.24686"
           id="rect1036"
           style="stroke-width:0.500805" />
      </g>
    </clipPath>
    <clipPath
       clipPathUnits="userSpaceOnUse"
       id="clipPath1033">
      <g
         id="g1034"
         transform="matrix(1.996784,0,0,1.996784,-128.0789,-92.965407)">
        <rect
           x="222.78349"
           y="148.76915"
           width="119.24686"
           height="119.24686"
           id="rect1034"
           style="stroke-width:0.500805" />
      </g>
    </clipPath>
    <clipPath
       clipPathUnits="userSpaceOnUse"
       id="clipPath1031">
      <g
         id="g1032"
         transform="matrix(1.996784,0,0,1.996784,-128.0789,-92.965407)">
        <rect
           x="222.78349"
           y="148.76915"
           width="119.24686"
           height="119.24686"
           id="rect1032"
           style="stroke-width:0.500805" />
      </g>
    </clipPath>
    <clipPath
       clipPathUnits="userSpaceOnUse"
       id="clipPath1029">
      <g
         id="g1030"
         transform="matrix(1.996784,0,0,1.996784,-128.0789,-92.965407)">
        <rect
           x="222.78349"
           y="148.76915"
           width="119.24686"
           height="119.24686"
           id="rect1030"
           style="stroke-width:0.500805" />
      </g>
    </clipPath>
    <clipPath
       clipPathUnits="userSpaceOnUse"
       id="clipPath1027">
      <g
         id="g1028"
         transform="matrix(1.996784,0,0,1.996784,-128.0789,-92.965407)">
        <rect
           x="222.78349"
           y="148.76915"
           width="119.24686"
           height="119.24686"
           id="rect1028"
           style="stroke-width:0.500805" />
      </g>
    </clipPath>
    <clipPath
       clipPathUnits="userSpaceOnUse"
       id="clipPath1025">
      <g
         id="g1026"
         transform="matrix(1.996784,0,0,1.996784,-128.0789,-92.965407)">
        <rect
           x="222.78349"
           y="148.76915"
           width="119.24686"
           height="119.24686"
           id="rect1026"
           style="stroke-width:0.500805" />
      </g>
    </clipPath>
    <clipPath
       clipPathUnits="userSpaceOnUse"
       id="clipPath1023">
      <g
         id="g1024"
         transform="matrix(1.996784,0,0,1.996784,-128.0789,-92.965407)">
        <rect
           x="222.78349"
           y="148.76915"
           width="119.24686"
           height="119.24686"
           id="rect1024"
           style="stroke-width:0.500805" />
      </g>
    </clipPath>
    <clipPath
       clipPathUnits="userSpaceOnUse"
       id="clipPath1021">
      <g
         id="g1022"
         transform="matrix(1.996784,0,0,1.996784,-128.0789,-92.965407)">
        <rect
           x="222.78349"
           y="148.76915"
           width="119.24686"
           height="119.24686"
           id="rect1022"
           style="stroke-width:0.500805" />
      </g>
    </clipPath>
    <clipPath
       clipPathUnits="userSpaceOnUse"
       id="clipPath1019">
      <g
         id="g1020"
         transform="matrix(1.996784,0,0,1.996784,-128.0789,-92.965407)">
        <rect
           x="222.78349"
           y="148.76915"
           width="119.24686"
           height="119.24686"
           id="rect1020"
           style="stroke-width:0.500805" />
      </g>
    </clipPath>
    <clipPath
       clipPathUnits="userSpaceOnUse"
       id="clipPath1017">
      <g
         id="g1018"
         transform="matrix(1.996784,0,0,1.996784,-128.0789,-92.965407)">
        <rect
           x="222.78349"
           y="148.76915"
           width="119.24686"
           height="119.24686"
           id="rect1018"
           style="stroke-width:0.500805" />
      </g>
    </clipPath>
    <clipPath
       clipPathUnits="userSpaceOnUse"
       id="clipPath1015">
      <g
         id="g1016"
         transform="matrix(1.996784,0,0,1.996784,-128.0789,-92.965407)">
        <rect
           x="222.78349"
           y="148.76915"
           width="119.24686"
           height="119.24686"
           id="rect1016"
           style="stroke-width:0.500805" />
      </g>
    </clipPath>
    <clipPath
       clipPathUnits="userSpaceOnUse"
       id="clipPath1013">
      <g
         id="g1014"
         transform="matrix(1.996784,0,0,1.996784,-128.0789,-92.965407)">
        <rect
           x="222.78349"
           y="148.76915"
           width="119.24686"
           height="119.24686"
           id="rect1014"
           style="stroke-width:0.500805" />
      </g>
    </clipPath>
    <clipPath
       clipPathUnits="userSpaceOnUse"
       id="clipPath1011">
      <g
         id="g1012"
         transform="matrix(1.996784,0,0,1.996784,-128.0789,-92.965407)">
        <rect
           x="222.78349"
           y="148.76915"
           width="119.24686"
           height="119.24686"
           id="rect1012"
           style="stroke-width:0.500805" />
      </g>
    </clipPath>
    <clipPath
       clipPathUnits="userSpaceOnUse"
       id="clipPath1009">
      <g
         id="g1010"
         transform="matrix(1.996784,0,0,1.996784,-128.0789,-92.965407)">
        <rect
           x="222.78349"
           y="148.76915"
           width="119.24686"
           height="119.24686"
           id="rect1010"
           style="stroke-width:0.500805" />
      </g>
    </clipPath>
    <clipPath
       clipPathUnits="userSpaceOnUse"
       id="clipPath1007">
      <g
         id="g1008"
         transform="matrix(1.996784,0,0,1.996784,-128.0789,-92.965407)">
        <rect
           x="222.78349"
           y="148.76915"
           width="119.24686"
           height="119.24686"
           id="rect1008"
           style="stroke-width:0.500805" />
      </g>
    </clipPath>
    <clipPath
       clipPathUnits="userSpaceOnUse"
       id="clipPath1005">
      <g
         id="g1006"
         transform="matrix(1.996784,0,0,1.996784,-128.0789,-92.965407)">
        <rect
           x="222.78349"
           y="148.76915"
           width="119.24686"
           height="119.24686"
           id="rect1006"
           style="stroke-width:0.500805" />
      </g>
    </clipPath>
    <clipPath
       clipPathUnits="userSpaceOnUse"
       id="clipPath1003">
      <g
         id="g1004"
         transform="matrix(1.996784,0,0,1.996784,-128.0789,-92.965407)">
        <rect
           x="222.78349"
           y="148.76915"
           width="119.24686"
           height="119.24686"
           id="rect1004"
           style="stroke-width:0.500805" />
      </g>
    </clipPath>
    <clipPath
       clipPathUnits="userSpaceOnUse"
       id="clipPath1001">
      <g
         id="g1002"
         transform="matrix(1.996784,0,0,1.996784,-128.0789,-92.965407)">
        <rect
           x="222.78349"
           y="148.76915"
           width="119.24686"
           height="119.24686"
           id="rect1002"
           style="stroke-width:0.500805" />
      </g>
    </clipPath>
    <clipPath
       clipPathUnits="userSpaceOnUse"
       id="clipPath999">
      <g
         id="g1000"
         transform="matrix(1.996784,0,0,1.996784,-128.0789,-92.965407)">
        <rect
           x="222.78349"
           y="148.76915"
           width="119.24686"
           height="119.24686"
           id="rect1000"
           style="stroke-width:0.500805" />
      </g>
    </clipPath>
    <clipPath
       clipPathUnits="userSpaceOnUse"
       id="clipPath997">
      <g
         id="g998"
         transform="matrix(1.996784,0,0,1.996784,-128.0789,-92.965407)">
        <rect
           x="222.78349"
           y="148.76915"
           width="119.24686"
           height="119.24686"
           id="rect998"
           style="stroke-width:0.500805" />
      </g>
    </clipPath>
    <clipPath
       clipPathUnits="userSpaceOnUse"
       id="clipPath995">
      <g
         id="g996"
         transform="matrix(1.996784,0,0,1.996784,-128.0789,-92.965407)">
        <rect
           x="222.78349"
           y="148.76915"
           width="119.24686"
           height="119.24686"
           id="rect996"
           style="stroke-width:0.500805" />
      </g>
    </clipPath>
    <clipPath
       clipPathUnits="userSpaceOnUse"
       id="clipPath993">
      <g
         id="g994"
         transform="matrix(1.996784,0,0,1.996784,-128.0789,-92.965407)">
        <rect
           x="222.78349"
           y="148.76915"
           width="119.24686"
           height="119.24686"
           id="rect994"
           style="stroke-width:0.500805" />
      </g>
    </clipPath>
    <clipPath
       clipPathUnits="userSpaceOnUse"
       id="clipPath991">
      <g
         id="g992"
         transform="matrix(1.996784,0,0,1.996784,-128.0789,-92.965407)">
        <rect
           x="222.78349"
           y="148.76915"
           width="119.24686"
           height="119.24686"
           id="rect992"
           style="stroke-width:0.500805" />
      </g>
    </clipPath>
    <clipPath
       clipPathUnits="userSpaceOnUse"
       id="clipPath989">
      <g
         id="g990"
         transform="matrix(1.996784,0,0,1.996784,-128.0789,-92.965407)">
        <rect
           x="222.78349"
           y="148.76915"
           width="119.24686"
           height="119.24686"
           id="rect990"
           style="stroke-width:0.500805" />
      </g>
    </clipPath>
    <clipPath
       clipPathUnits="userSpaceOnUse"
       id="clipPath987">
      <g
         id="g988"
         transform="matrix(1.996784,0,0,1.996784,-128.0789,-92.965407)">
        <rect
           x="222.78349"
           y="148.76915"
           width="119.24686"
           height="119.24686"
           id="rect988"
           style="stroke-width:0.500805" />
      </g>
    </clipPath>
    <clipPath
       clipPathUnits="userSpaceOnUse"
       id="clipPath985">
      <g
         id="g986"
         transform="matrix(1.996784,0,0,1.996784,-128.0789,-92.965407)">
        <rect
           x="222.78349"
           y="148.76915"
           width="119.24686"
           height="119.24686"
           id="rect986"
           style="stroke-width:0.500805" />
      </g>
    </clipPath>
    <clipPath
       clipPathUnits="userSpaceOnUse"
       id="clipPath983">
      <g
         id="g984"
         transform="matrix(1.996784,0,0,1.996784,-128.0789,-92.965407)">
        <rect
           x="222.78349"
           y="148.76915"
           width="119.24686"
           height="119.24686"
           id="rect984"
           style="stroke-width:0.500805" />
      </g>
    </clipPath>
  </defs>
  <sodipodi:namedview
     id="namedview1"
     pagecolor="#ffffff"
     bordercolor="#ffffff"
     borderopacity="0"
     inkscape:showpageshadow="0"
     inkscape:pageopacity="0"
     inkscape:pagecheckerboard="1"
     inkscape:deskcolor="#999087"
     showgrid="false"
     inkscape:zoom="0.20510153"
     inkscape:cx="255.97079"
     inkscape:cy="602.14081"
     inkscape:window-width="1648"
     inkscape:window-height="712"
     inkscape:window-x="0"
     inkscape:window-y="0"
     inkscape:window-maximized="0"
     inkscape:current-layer="g1">
    <inkscape:grid
       id="grid1"
       units="px"
       originx="-282.43761"
       originy="-273.1346"
       spacingx="0.99999998"
       spacingy="0.99999997"
       empcolor="#0099e5"
       empopacity="0.30196078"
       color="#0099e5"
       opacity="0.14901961"
       empspacing="5"
       dotted="false"
       gridanglex="30"
       gridanglez="30"
       visible="false" />
  </sodipodi:namedview>
  <g
     inkscape:groupmode="layer"
     inkscape:label="Image"
     id="g1"
     transform="translate(-282.43761,-273.13461)">
    <g
       id="g2" />
    <g
       id="g3"
       style="stroke-linecap:butt;stroke-linejoin:round"
       transform="matrix(2.0530045,0,0,2.0530045,-3414.2027,-800.06179)">
      <path
         d="M 1887.1032,900.91914 H 2245.472 V 542.55031 h -358.3688 z"
         style="fill:#ffffff;stroke-width:1.50505;stroke-linecap:butt;stroke-linejoin:round"
         id="path2-8" />
      <path
         id="use9-5"
         d="m 1835.5175,897.7763 q 0,-4.4258 1.1194,-6.83389 1.5568,-3.58861 5.2301,-3.58861 0.7807,0 1.5944,0.21635 0.8184,0.21165 1.8531,1.02061 1.0347,0.80897 1.6697,2.13059 1.204,2.5586 1.204,7.05495 0,4.39287 -1.1194,6.79155 -1.632,3.49925 -5.23,3.49925 -1.3546,0 -2.728,-0.69138 -1.3733,-0.69138 -2.2387,-2.35165 -1.3546,-2.48334 -1.3546,-7.24777 z m 2.4975,-0.36686 q 0,4.54338 0.3245,6.34945 0.3669,1.95657 1.3734,2.80316 1.0065,0.84189 2.1259,0.84189 1.204,0 2.2105,-0.90303 1.0065,-0.90304 1.3169,-2.85961 0.3387,-1.92364 0.3245,-6.23186 0,-4.19064 -0.2963,-5.86501 -0.395,-1.95657 -1.4486,-2.74202 -1.0488,-0.78545 -2.107,-0.78545 -0.3998,0 -0.8184,0.11758 -0.4186,0.11758 -1.0206,0.45622 -0.6021,0.33864 -1.0677,1.17583 -0.4609,0.83718 -0.682,2.10237 -0.2351,1.63204 -0.2351,5.54048 z"
         style="fill:#262626;stroke-width:0.00470329;stroke-linecap:butt;stroke-linejoin:round" />
      <path
         id="use10-8"
         d="m 1852.4071,906.9195 q -0.4563,-0.48444 -0.4563,-1.11468 0,-0.63494 0.4563,-1.09587 0.4562,-0.46562 1.1429,-0.46562 0.6631,0 1.1099,0.4327 0.4515,0.4327 0.4515,1.13349 0,0.69609 -0.4797,1.14761 -0.475,0.44681 -1.0817,0.44681 -0.6867,0 -1.1429,-0.48444 z"
         style="fill:#262626;stroke-width:0.00470329;stroke-linecap:butt;stroke-linejoin:round" />
      <path
         id="use11-9"
         d="m 1858.9311,897.7763 q 0,-4.4258 1.1194,-6.83389 1.5568,-3.58861 5.2301,-3.58861 0.7807,0 1.5944,0.21635 0.8183,0.21165 1.8531,1.02061 1.0347,0.80897 1.6696,2.13059 1.2041,2.5586 1.2041,7.05495 0,4.39287 -1.1194,6.79155 -1.632,3.49925 -5.2301,3.49925 -1.3545,0 -2.7279,-0.69138 -1.3733,-0.69138 -2.2387,-2.35165 -1.3546,-2.48334 -1.3546,-7.24777 z m 2.4975,-0.36686 q 0,4.54338 0.3245,6.34945 0.3668,1.95657 1.3734,2.80316 1.0065,0.84189 2.1258,0.84189 1.2041,0 2.2106,-0.90303 1.0065,-0.90304 1.3169,-2.85961 0.3386,-1.92364 0.3245,-6.23186 0,-4.19064 -0.2963,-5.86501 -0.395,-1.95657 -1.4486,-2.74202 -1.0488,-0.78545 -2.1071,-0.78545 -0.3997,0 -0.8183,0.11758 -0.4186,0.11758 -1.0206,0.45622 -0.6021,0.33864 -1.0677,1.17583 -0.4609,0.83718 -0.682,2.10237 -0.2351,1.63204 -0.2351,5.54048 z"
         style="fill:#262626;stroke-width:0.00470329;stroke-linecap:butt;stroke-linejoin:round" />
      <path
         id="use12-2"
         d="m 1835.5175,819.5305 q 0,-4.4258 1.1194,-6.83389 1.5568,-3.58861 5.2301,-3.58861 0.7807,0 1.5944,0.21635 0.8184,0.21165 1.8531,1.02061 1.0347,0.80897 1.6697,2.13059 1.204,2.5586 1.204,7.05495 0,4.39287 -1.1194,6.79155 -1.632,3.49925 -5.23,3.49925 -1.3546,0 -2.728,-0.69138 -1.3733,-0.69138 -2.2387,-2.35165 -1.3546,-2.48334 -1.3546,-7.24777 z m 2.4975,-0.36686 q 0,4.54338 0.3245,6.34945 0.3669,1.95657 1.3734,2.80316 1.0065,0.84189 2.1259,0.84189 1.204,0 2.2105,-0.90303 1.0065,-0.90304 1.3169,-2.85961 0.3387,-1.92364 0.3245,-6.23186 0,-4.19064 -0.2963,-5.86501 -0.395,-1.95657 -1.4486,-2.74202 -1.0488,-0.78545 -2.107,-0.78545 -0.3998,0 -0.8184,0.11758 -0.4186,0.11758 -1.0206,0.45622 -0.6021,0.33864 -1.0677,1.17583 -0.4609,0.83718 -0.682,2.10237 -0.2351,1.63204 -0.2351,5.54048 z"
         style="fill:#262626;stroke-width:0.00470329;stroke-linecap:butt;stroke-linejoin:round" />
      <path
         id="use13-0"
         d="m 1852.4071,828.6737 q -0.4563,-0.48444 -0.4563,-1.11468 0,-0.63494 0.4563,-1.09587 0.4562,-0.46562 1.1429,-0.46562 0.6631,0 1.1099,0.4327 0.4515,0.4327 0.4515,1.13349 0,0.69609 -0.4797,1.14761 -0.475,0.44681 -1.0817,0.44681 -0.6867,0 -1.1429,-0.48444 z"
         style="fill:#262626;stroke-width:0.00470329;stroke-linecap:butt;stroke-linejoin:round" />
      <path
         id="use14-5"
         d="m 1860.4315,811.97701 v -0.94066 q 3.6168,0 5.4793,-1.92835 0.5174,0 0.602,0.11758 0.089,0.11758 0.089,0.66316 v 16.88953 q 0,0.89363 0.4421,1.17583 0.4421,0.27749 2.3658,0.27749 h 0.9547 v 0.92655 q -1.0582,-0.0894 -4.882,-0.0894 -3.8191,0 -4.8632,0.0894 v -0.92655 h 0.9595 q 1.8954,0 2.3469,-0.27279 0.4562,-0.27279 0.4562,-1.18053 v -15.59612 q -1.5709,0.79486 -3.9507,0.79486 z"
         style="fill:#262626;stroke-width:0.00470329;stroke-linecap:butt;stroke-linejoin:round" />
      <path
         id="use15-4"
         d="m 1835.5175,741.28473 q 0,-4.4258 1.1194,-6.83389 1.5568,-3.58861 5.2301,-3.58861 0.7807,0 1.5944,0.21635 0.8184,0.21165 1.8531,1.02061 1.0347,0.80897 1.6697,2.13059 1.204,2.5586 1.204,7.05495 0,4.39287 -1.1194,6.79155 -1.632,3.49925 -5.23,3.49925 -1.3546,0 -2.728,-0.69138 -1.3733,-0.69138 -2.2387,-2.35165 -1.3546,-2.48334 -1.3546,-7.24777 z m 2.4975,-0.36686 q 0,4.54338 0.3245,6.34945 0.3669,1.95657 1.3734,2.80316 1.0065,0.84189 2.1259,0.84189 1.204,0 2.2105,-0.90303 1.0065,-0.90304 1.3169,-2.85961 0.3387,-1.92364 0.3245,-6.23186 0,-4.19064 -0.2963,-5.86501 -0.395,-1.95657 -1.4486,-2.74202 -1.0488,-0.78545 -2.107,-0.78545 -0.3998,0 -0.8184,0.11758 -0.4186,0.11758 -1.0206,0.45622 -0.6021,0.33864 -1.0677,1.17583 -0.4609,0.83718 -0.682,2.10237 -0.2351,1.63204 -0.2351,5.54048 z"
         style="fill:#262626;stroke-width:0.00470329;stroke-linecap:butt;stroke-linejoin:round" />
      <path
         id="use16-7"
         d="m 1852.4071,750.42793 q -0.4563,-0.48444 -0.4563,-1.11468 0,-0.63494 0.4563,-1.09587 0.4562,-0.46562 1.1429,-0.46562 0.6631,0 1.1099,0.4327 0.4515,0.4327 0.4515,1.13349 0,0.69609 -0.4797,1.14761 -0.475,0.44681 -1.0817,0.44681 -0.6867,0 -1.1429,-0.48444 z"
         style="fill:#262626;stroke-width:0.00470329;stroke-linecap:butt;stroke-linejoin:round" />
      <path
         id="use17-1"
         d="m 1859.2556,750.91237 q 0,-0.54558 0.052,-0.70549 0.052,-0.15992 0.2869,-0.41389 l 5.7756,-6.43411 q 3.1606,-3.56039 3.1606,-6.65987 0,-2.01301 -1.0535,-3.45221 -1.0488,-1.44392 -2.9772,-1.44392 -1.3216,0 -2.441,0.80897 -1.1147,0.80897 -1.6273,2.24818 0.089,-0.0282 0.395,-0.0282 0.7526,0 1.1712,0.47033 0.4186,0.47032 0.4186,1.10527 0,0.80426 -0.5221,1.19464 -0.5221,0.39037 -1.0394,0.39037 -0.2023,0 -0.4751,-0.0423 -0.2728,-0.047 -0.7008,-0.46563 -0.4233,-0.41859 -0.4233,-1.16641 0,-2.10238 1.5945,-3.77675 1.5944,-1.67907 4.0354,-1.67907 2.7608,0 4.5763,1.64145 1.8155,1.63674 1.8155,4.19533 0,0.89833 -0.2728,1.71671 -0.2728,0.81367 -0.635,1.44391 -0.3574,0.63024 -1.3263,1.64615 -0.9689,1.01591 -1.7496,1.73552 -0.7761,0.7196 -2.5257,2.24817 l -3.1888,3.09947 h 5.4229 q 2.6432,0 2.8502,-0.23516 0.2916,-0.4233 0.6631,-2.67618 h 0.762 l -0.8513,5.23477 z"
         style="fill:#262626;stroke-width:0.00470329;stroke-linecap:butt;stroke-linejoin:round" />
      <path
         id="use18-9"
         d="m 1835.5175,663.03893 q 0,-4.4258 1.1194,-6.83389 1.5568,-3.58861 5.2301,-3.58861 0.7807,0 1.5944,0.21635 0.8184,0.21165 1.8531,1.02061 1.0347,0.80897 1.6697,2.13059 1.204,2.5586 1.204,7.05495 0,4.39287 -1.1194,6.79155 -1.632,3.49925 -5.23,3.49925 -1.3546,0 -2.728,-0.69138 -1.3733,-0.69138 -2.2387,-2.35165 -1.3546,-2.48334 -1.3546,-7.24777 z m 2.4975,-0.36686 q 0,4.54338 0.3245,6.34945 0.3669,1.95657 1.3734,2.80316 1.0065,0.84189 2.1259,0.84189 1.204,0 2.2105,-0.90303 1.0065,-0.90304 1.3169,-2.85961 0.3387,-1.92364 0.3245,-6.23186 0,-4.19064 -0.2963,-5.86501 -0.395,-1.95657 -1.4486,-2.74202 -1.0488,-0.78545 -2.107,-0.78545 -0.3998,0 -0.8184,0.11758 -0.4186,0.11758 -1.0206,0.45622 -0.6021,0.33864 -1.0677,1.17583 -0.4609,0.83718 -0.682,2.10237 -0.2351,1.63204 -0.2351,5.54048 z"
         style="fill:#262626;stroke-width:0.00470329;stroke-linecap:butt;stroke-linejoin:round" />
      <path
         id="use19-5"
         d="m 1852.4071,672.18213 q -0.4563,-0.48444 -0.4563,-1.11468 0,-0.63494 0.4563,-1.09587 0.4562,-0.46562 1.1429,-0.46562 0.6631,0 1.1099,0.4327 0.4515,0.4327 0.4515,1.13349 0,0.69609 -0.4797,1.14761 -0.475,0.44681 -1.0817,0.44681 -0.6867,0 -1.1429,-0.48444 z"
         style="fill:#262626;stroke-width:0.00470329;stroke-linecap:butt;stroke-linejoin:round" />
      <path
         id="use20-3"
         d="m 1859.0205,668.60763 q 0,-0.89363 0.5126,-1.31693 0.5174,-0.428 1.1759,-0.428 0.6913,0 1.1805,0.44682 0.4938,0.44681 0.4938,1.22756 0,0.83718 -0.5785,1.30751 -0.5785,0.47033 -1.4016,0.35275 0.7196,1.20404 2.046,1.74963 1.331,0.54087 2.568,0.54087 1.2934,0 2.3422,-1.11468 1.0536,-1.11938 1.0536,-3.85199 0,-2.32343 -0.9078,-3.65917 -0.903,-1.33573 -2.6809,-1.33573 h -1.3216 q -0.4562,0 -0.5879,-0.0423 -0.1317,-0.047 -0.1317,-0.29631 0,-0.29631 0.4562,-0.35275 0.4562,0 1.1759,-0.0894 1.7496,-0.0564 2.6714,-1.5709 0.8419,-1.41099 0.8419,-3.424 0,-1.83899 -0.8748,-2.61033 -0.8748,-0.77134 -2.0083,-0.77134 -1.0582,0 -2.22,0.44211 -1.1617,0.43741 -1.7919,1.4251 1.8672,0 1.8672,1.51446 0,0.65846 -0.4186,1.09587 -0.4186,0.4327 -1.11,0.4327 -0.6631,0 -1.1053,-0.41859 -0.4374,-0.4233 -0.4374,-1.1429 0,-1.7167 1.5333,-2.90664 1.538,-1.19463 3.8003,-1.19463 2.234,0 3.8849,1.17582 1.6556,1.17582 1.6556,2.98659 0,1.77785 -1.1759,3.23587 -1.1758,1.45332 -3.043,2.05534 2.2952,0.45622 3.6592,2.0083 1.3686,1.54739 1.3686,3.44282 0,2.35164 -1.8531,4.08246 -1.8484,1.7261 -4.5528,1.7261 -2.5021,0 -4.2941,-1.34984 -1.7919,-1.35455 -1.7919,-3.37226 z"
         style="fill:#262626;stroke-width:0.00470329;stroke-linecap:butt;stroke-linejoin:round" />
      <path
         id="use21-6"
         d="m 1835.5175,584.79312 q 0,-4.4258 1.1194,-6.83389 1.5568,-3.58861 5.2301,-3.58861 0.7807,0 1.5944,0.21635 0.8184,0.21165 1.8531,1.02061 1.0347,0.80897 1.6697,2.13059 1.204,2.5586 1.204,7.05495 0,4.39287 -1.1194,6.79155 -1.632,3.49925 -5.23,3.49925 -1.3546,0 -2.728,-0.69138 -1.3733,-0.69138 -2.2387,-2.35165 -1.3546,-2.48334 -1.3546,-7.24777 z m 2.4975,-0.36686 q 0,4.54338 0.3245,6.34945 0.3669,1.95657 1.3734,2.80316 1.0065,0.84189 2.1259,0.84189 1.204,0 2.2105,-0.90303 1.0065,-0.90304 1.3169,-2.85961 0.3387,-1.92364 0.3245,-6.23186 0,-4.19064 -0.2963,-5.86501 -0.395,-1.95657 -1.4486,-2.74202 -1.0488,-0.78545 -2.107,-0.78545 -0.3998,0 -0.8184,0.11758 -0.4186,0.11758 -1.0206,0.45622 -0.6021,0.33864 -1.0677,1.17583 -0.4609,0.83718 -0.682,2.10237 -0.2351,1.63204 -0.2351,5.54048 z"
         style="fill:#262626;stroke-width:0.00470329;stroke-linecap:butt;stroke-linejoin:round" />
      <path
         id="use22-1"
         d="m 1852.4071,593.93632 q -0.4563,-0.48444 -0.4563,-1.11468 0,-0.63494 0.4563,-1.09587 0.4562,-0.46562 1.1429,-0.46562 0.6631,0 1.1099,0.4327 0.4515,0.4327 0.4515,1.13349 0,0.69609 -0.4797,1.14761 -0.475,0.44681 -1.0817,0.44681 -0.6867,0 -1.1429,-0.48444 z"
         style="fill:#262626;stroke-width:0.00470329;stroke-linecap:butt;stroke-linejoin:round" />
      <path
         id="use23-4"
         d="m 1858.5925,589.45408 v -0.92655 l 9.2467,-14.12399 q 0.2351,-0.36686 0.602,-0.35275 0.3386,0 0.4092,0.13169 0.075,0.1317 0.075,0.64435 v 13.7007 h 3.0148 v 0.92655 h -3.0148 v 2.61503 q 0,0.86541 0.3575,1.14761 0.3621,0.27749 1.9189,0.27749 h 0.635 v 0.92655 q -1.237,-0.0894 -4.0872,-0.0894 -2.8361,0 -4.0731,0.0894 v -0.92655 h 0.635 q 1.5568,0 1.9236,-0.27279 0.3669,-0.27279 0.3669,-1.15231 v -2.61503 z m 0.8513,-0.92655 h 7.3371 v -11.23147 z"
         style="fill:#262626;stroke-width:0.00470329;stroke-linecap:butt;stroke-linejoin:round" />
      <path
         id="use24-3"
         d="m 1822.146,781.77932 h -0.9265 q -0.056,-2.67617 -2.0272,-3.36756 l -17.9901,-6.23186 q -0.3668,-0.11759 -0.4844,-0.24928 -0.1176,-0.13169 -0.1176,-0.47033 0,-0.17872 0.028,-0.2869 0.028,-0.10817 0.1317,-0.18343 0.1035,-0.0752 0.1646,-0.10347 0.056,-0.0282 0.2775,-0.11758 l 18.8132,-6.49525 q 0.7478,-0.23517 0.9783,-0.7196 0.2258,-0.48444 0.2258,-1.8531 v -0.53148 h 0.9265 q -0.089,1.90014 -0.089,3.94137 0,3.24997 0.089,4.33643 h -0.9265 q 0,-2.49745 -0.9125,-2.49745 -0.056,0 -0.4233,0.0847 l -4.5998,1.58972 v 7.43591 l 3.9367,1.39687 q 0.1175,0.0564 0.4562,0.0564 0.6302,0 1.0864,-0.58791 0.4563,-0.58791 0.4563,-1.67437 h 0.9265 q -0.089,2.89723 -0.089,3.47103 0,0.98299 0.089,3.05714 z m -7.7887,-6.04373 v -6.77275 l -9.7922,3.39578 z"
         style="fill:#262626;stroke-width:0.00470329;stroke-linecap:butt;stroke-linejoin:round" />
      <path
         id="use25-8"
         d="m 1820.4951,757.23283 q -1.9942,1.90953 -4.8538,1.90953 -2.8596,0 -4.9243,-1.88131 -2.0648,-1.88132 -2.0648,-4.64215 0,-1.83899 0.8749,-3.21706 0.8748,-1.38277 2.361,-1.38277 0.6585,0 1.0347,0.39038 0.3763,0.38567 0.3763,0.98769 0,0.63494 -0.3904,1.01121 -0.3903,0.37156 -0.9924,0.37156 -0.2634,0 -0.5267,-0.0847 -0.2681,-0.0894 -0.5456,-0.4186 -0.2822,-0.33393 -0.3245,-0.90773 -1.1006,1.07235 -1.1006,3.16061 0,0.0282 0,0.0564 0,1.52857 1.4392,2.79376 1.4392,1.26519 4.7315,1.26519 1.7214,0 2.9772,-0.4186 1.2558,-0.41859 1.9048,-1.10998 0.6444,-0.69138 0.9454,-1.36395 0.301,-0.67728 0.301,-1.34044 0,-2.95367 -3.1606,-3.95547 -0.2916,-0.0847 -0.2916,-0.38097 0,-0.39507 0.2916,-0.39507 0.1505,0 0.5315,0.11758 0.3809,0.11758 0.9829,0.48444 0.6021,0.36685 1.1241,0.88892 0.5221,0.52207 0.9078,1.43921 0.3809,0.91714 0.3809,2.06474 0,2.64796 -1.9895,4.5575 z"
         style="fill:#262626;stroke-width:0.00470329;stroke-linecap:butt;stroke-linejoin:round" />
      <path
         id="use26-3"
         d="m 1820.4951,743.87253 q -1.9942,1.90954 -4.8538,1.90954 -2.8596,0 -4.9243,-1.88132 -2.0648,-1.88132 -2.0648,-4.64215 0,-1.83899 0.8749,-3.21706 0.8748,-1.38277 2.361,-1.38277 0.6585,0 1.0347,0.39038 0.3763,0.38567 0.3763,0.98769 0,0.63494 -0.3904,1.01121 -0.3903,0.37156 -0.9924,0.37156 -0.2634,0 -0.5267,-0.0847 -0.2681,-0.0894 -0.5456,-0.41859 -0.2822,-0.33394 -0.3245,-0.90774 -1.1006,1.07235 -1.1006,3.16061 0,0.0282 0,0.0564 0,1.52857 1.4392,2.79376 1.4392,1.26519 4.7315,1.26519 1.7214,0 2.9772,-0.4186 1.2558,-0.41859 1.9048,-1.10997 0.6444,-0.69139 0.9454,-1.36396 0.301,-0.67727 0.301,-1.34044 0,-2.95367 -3.1606,-3.95547 -0.2916,-0.0847 -0.2916,-0.38097 0,-0.39507 0.2916,-0.39507 0.1505,0 0.5315,0.11758 0.3809,0.11758 0.9829,0.48444 0.6021,0.36686 1.1241,0.88892 0.5221,0.52207 0.9078,1.43921 0.3809,0.91714 0.3809,2.06475 0,2.64795 -1.9895,4.55749 z"
         style="fill:#262626;stroke-width:0.00470329;stroke-linecap:butt;stroke-linejoin:round" />
      <path
         id="use27-4"
         d="m 1810.1103,732.48292 h -0.9407 l -0.3245,-4.4258 h 9.9945 q 0.7196,0 1.1382,-0.0564 0.4186,-0.0611 0.903,-0.30102 0.4845,-0.24457 0.7055,-0.80896 0.2211,-0.5691 0.2211,-1.47684 0,-1.63204 -1.3358,-2.63854 -1.3404,-1.00651 -3.3252,-1.00651 h -5.3618 q -1.1193,0 -1.3968,0.39508 -0.2775,0.39507 -0.2775,1.95657 h -0.9407 l -0.3245,-4.4258 h 10.6859 q 1.1146,0 1.4016,-0.39038 0.2869,-0.39037 0.2869,-1.96127 h 0.9265 l 0.3386,4.33644 h -2.7185 q 2.7044,1.26518 2.7185,3.88022 0,1.32162 -0.3386,2.22465 -0.3386,0.90304 -0.7572,1.35926 -0.4186,0.45622 -1.2276,0.70079 -0.809,0.23987 -1.3075,0.27279 -0.4986,0.0282 -1.4721,0.0282 h -4.5105 q -2.0412,0 -2.3987,0.29631 -0.3621,0.2916 -0.3621,2.04123 z"
         style="fill:#262626;stroke-width:0.00470329;stroke-linecap:butt;stroke-linejoin:round" />
      <path
         id="use28-2"
         d="m 1822.146,715.91791 h -0.9265 q 0,-1.60382 -0.1976,-1.97538 -0.1975,-0.37627 -1.1711,-0.37627 h -8.0662 q -1.1193,0 -1.3968,0.39038 -0.2775,0.38567 -0.2775,1.96127 h -0.9407 l -0.3245,-4.19063 h 3.3064 q -1.2934,-0.4233 -2.2999,-1.32633 -1.0065,-0.90774 -1.0065,-2.37517 0,-0.97358 0.5456,-1.59441 0.5408,-0.62554 1.2887,-0.62554 0.6631,0 0.9971,0.40448 0.3292,0.40449 0.3292,0.88892 0,0.54088 -0.3433,0.91715 -0.3481,0.37626 -0.9501,0.37626 -0.3669,0 -0.6538,-0.16932 -0.2869,-0.16932 -0.3903,-0.30101 -0.1035,-0.13169 -0.1317,-0.22105 -0.033,0.0564 -0.033,0.32452 0,1.66027 1.6556,2.61033 1.6556,0.94536 4.0072,0.94536 h 4.6281 q 0.8654,0 1.1476,-0.35745 0.2775,-0.36215 0.2775,-1.93775 v -0.63024 h 0.9265 q -0.089,1.20404 -0.089,3.82377 0,0.36686 0.014,0.94066 0.014,0.5691 0.047,1.32163 0.028,0.74782 0.028,1.17582 z"
         style="fill:#262626;stroke-width:0.00470329;stroke-linecap:butt;stroke-linejoin:round" />
      <path
         id="use29-0"
         d="m 1819.2817,703.73168 q -2.5586,0 -3.9131,-3.01011 -0.8655,-1.81077 -1.0865,-5.54519 h -1.1006 q -1.8672,0 -2.8596,0.97829 -0.9924,0.97828 -0.9924,2.21525 0,2.20114 1.3828,3.25938 0.028,-0.89362 0.4797,-1.21815 0.4468,-0.32453 0.8984,-0.32453 0.6067,0 0.9971,0.37627 0.3856,0.37626 0.3856,1.0065 0,0.60202 -0.3715,1.0018 -0.3763,0.39508 -1.0395,0.39508 -1.4674,0 -2.4363,-1.33103 -0.9736,-1.33103 -0.9736,-3.22646 0,-2.46923 1.6603,-4.11539 0.5174,-0.51265 1.1805,-0.77134 0.6585,-0.25868 1.0912,-0.2869 0.4327,-0.0282 1.2887,-0.0282 h 6.0108 q 0.174,0 0.4703,-0.0564 0.2916,-0.0611 0.6679,-0.33393 0.3763,-0.27279 0.3763,-0.72901 0,-1.08646 -1.9284,-1.07235 h -1.6885 v -0.76194 h 1.6885 q 1.6038,0 2.2294,0.8466 0.6255,0.84189 0.6255,1.62263 0,0.9971 -0.7337,1.63205 -0.7384,0.63024 -1.7402,0.7196 1.1476,0.45622 1.8907,1.49095 0.7431,1.03472 0.7431,2.44571 0,1.08646 -0.2728,2.11178 -0.2727,1.02061 -1.03,1.86721 -0.7572,0.84189 -1.9001,0.84189 z m -0.033,-2.32343 q 1.1194,0 1.839,-0.79015 0.7196,-0.79486 0.7196,-1.91425 0,-1.26048 -0.9783,-2.39397 -0.9783,-1.1335 -2.902,-1.1335 h -3.0148 q 0.1176,3.33934 1.4486,4.78796 1.3311,1.44391 2.8879,1.44391 z"
         style="fill:#262626;stroke-width:0.00470329;stroke-linecap:butt;stroke-linejoin:round" />
      <path
         id="use30-1"
         d="m 1820.4951,687.00676 q -1.9942,1.90954 -4.8538,1.90954 -2.8596,0 -4.9243,-1.88132 -2.0648,-1.88132 -2.0648,-4.64215 0,-1.83899 0.8749,-3.21705 0.8748,-1.38277 2.361,-1.38277 0.6585,0 1.0347,0.39037 0.3763,0.38567 0.3763,0.98769 0,0.63495 -0.3904,1.01121 -0.3903,0.37156 -0.9924,0.37156 -0.2634,0 -0.5267,-0.0847 -0.2681,-0.0894 -0.5456,-0.41859 -0.2822,-0.33394 -0.3245,-0.90774 -1.1006,1.07235 -1.1006,3.16062 0,0.0282 0,0.0564 0,1.52857 1.4392,2.79375 1.4392,1.26519 4.7315,1.26519 1.7214,0 2.9772,-0.41859 1.2558,-0.4186 1.9048,-1.10998 0.6444,-0.69139 0.9454,-1.36396 0.301,-0.67727 0.301,-1.34044 0,-2.95367 -3.1606,-3.95547 -0.2916,-0.0847 -0.2916,-0.38096 0,-0.39508 0.2916,-0.39508 0.1505,0 0.5315,0.11758 0.3809,0.11758 0.9829,0.48444 0.6021,0.36686 1.1241,0.88892 0.5221,0.52207 0.9078,1.43921 0.3809,0.91714 0.3809,2.06475 0,2.64795 -1.9895,4.55749 z"
         style="fill:#262626;stroke-width:0.00470329;stroke-linecap:butt;stroke-linejoin:round" />
      <path
         id="use31-3"
         d="m 1825.8804,676.01222 q -0.6349,0 -0.9642,-0.37156 -0.3292,-0.37626 -0.3292,-0.89362 0,-0.54088 0.3434,-0.89833 0.348,-0.36216 0.9218,-0.36216 1.1147,0 1.2605,1.17583 0.5456,-0.57381 0.5456,-1.41099 0,-0.89833 -0.6632,-1.62264 -0.6585,-0.72901 -1.2934,-1.04413 -0.6303,-0.31982 -1.7779,-0.77604 -0.8936,-0.4233 -1.7778,-0.74783 l -10.9963,4.51046 q -0.7196,0.29631 -0.8795,0.75253 -0.1599,0.45622 -0.1599,1.68848 h -0.9407 q 0.085,-1.34984 0.085,-2.92545 0,-0.92655 -0.085,-3.27819 h 0.9407 q 0,1.69318 0.776,1.69318 0.089,0 0.5456,-0.17872 l 8.0991,-3.34875 -7.4077,-3.04303 q -0.428,-0.17873 -0.7196,-0.17873 -1.237,0 -1.2934,1.41099 h -0.9407 q 0.085,-1.98479 0.085,-2.61503 0,-1.23226 -0.085,-2.24817 h 0.9407 q 0,2.01301 1.9236,2.79375 l 12.8447,5.30532 q 3.424,1.43921 3.4428,3.852 0,1.1429 -0.7055,1.95187 -0.7055,0.80896 -1.7355,0.80896 z"
         style="fill:#262626;stroke-width:0.00470329;stroke-linecap:butt;stroke-linejoin:round" />
      <path
         id="use32-9"
         d="m 2066.2877,730.94873 7.2026,-7.20263 -7.2026,-7.20262 -7.2027,7.20262 z"
         style="stroke:#000000;stroke-width:3.04774;stroke-linecap:butt;stroke-linejoin:miter" />
      <path
         d="m 423.92126,335.93161 h 23.81102 m -11.90551,0 v -23.28599 m -11.90551,0 h 23.81102"
         clip-path="url(#p5576c2794e)"
         style="fill:none;stroke:#000000;stroke-width:2.7;stroke-linecap:round;stroke-linejoin:round"
         id="path32-0"
         transform="matrix(1.5050543,0,0,1.5050543,1410.3447,235.37702)" />
      <path
         d="M 316.77165,431.32217 H 554.88189"
         clip-path="url(#p5576c2794e)"
         style="fill:none;stroke:#808080;stroke-width:2;stroke-linecap:butt;stroke-linejoin:round;stroke-dasharray:7.4, 3.2;stroke-dashoffset:0;stroke-opacity:0.7"
         id="path33-9-7"
         transform="matrix(1.5050543,0,0,1.5050543,1410.3447,235.37702)" />
      <path
         d="M 1887.1032,900.91914 V 542.55031"
         style="fill:none;stroke:#262626;stroke-width:1.88132;stroke-linecap:square;stroke-linejoin:miter"
         id="path34-7" />
      <path
         d="M 2245.472,900.91914 V 542.55031"
         style="fill:none;stroke:#262626;stroke-width:1.88132;stroke-linecap:square;stroke-linejoin:miter"
         id="path35-5-9" />
      <path
         d="M 1887.1032,900.91914 H 2245.472"
         style="fill:none;stroke:#262626;stroke-width:1.88132;stroke-linecap:square;stroke-linejoin:miter"
         id="path36-9" />
      <path
         d="M 1887.1032,542.55031 H 2245.472"
         style="fill:none;stroke:#262626;stroke-width:1.88132;stroke-linecap:square;stroke-linejoin:miter"
         id="path37-9-73" />
      <path
         id="use37-9"
         d="m 2062.7851,683.32606 c 1.397,0 2.737,-0.55503 3.7249,-1.54287 0.9878,-0.98783 1.5428,-2.32781 1.5428,-3.72482 0,-1.397 -0.555,-2.73698 -1.5428,-3.72482 -0.9879,-0.98783 -2.3279,-1.54287 -3.7249,-1.54287 -1.397,0 -2.7369,0.55504 -3.7248,1.54287 -0.9878,0.98784 -1.5428,2.32782 -1.5428,3.72482 0,1.39701 0.555,2.73699 1.5428,3.72482 0.9879,0.98784 2.3278,1.54287 3.7248,1.54287 z"
         style="fill-opacity:0.3;stroke-width:1.50505;stroke-linecap:butt;stroke-linejoin:round" />
      <path
         id="use38-2"
         d="m 2055.9634,770.26582 c 1.397,0 2.737,-0.55503 3.7248,-1.54287 0.9878,-0.98783 1.5429,-2.32781 1.5429,-3.72482 0,-1.39701 -0.5551,-2.73698 -1.5429,-3.72482 -0.9878,-0.98783 -2.3278,-1.54287 -3.7248,-1.54287 -1.397,0 -2.737,0.55504 -3.7248,1.54287 -0.9879,0.98784 -1.5429,2.32781 -1.5429,3.72482 0,1.39701 0.555,2.73699 1.5429,3.72482 0.9878,0.98784 2.3278,1.54287 3.7248,1.54287 z"
         style="fill-opacity:0.3;stroke-width:1.50505;stroke-linecap:butt;stroke-linejoin:round" />
      <path
         id="use39-2"
         d="m 2082.1225,686.43102 c 1.397,0 2.737,-0.55504 3.7248,-1.54287 0.9879,-0.98784 1.5429,-2.32781 1.5429,-3.72482 0,-1.39701 -0.555,-2.73699 -1.5429,-3.72482 -0.9878,-0.98783 -2.3278,-1.54287 -3.7248,-1.54287 -1.397,0 -2.737,0.55504 -3.7248,1.54287 -0.9878,0.98783 -1.5429,2.32781 -1.5429,3.72482 0,1.39701 0.5551,2.73698 1.5429,3.72482 0.9878,0.98783 2.3278,1.54287 3.7248,1.54287 z"
         style="fill-opacity:0.3;stroke-width:1.50505;stroke-linecap:butt;stroke-linejoin:round" />
      <path
         id="use40-6"
         d="m 2068.7735,691.08852 c 1.397,0 2.737,-0.55504 3.7248,-1.54287 0.9878,-0.98783 1.5429,-2.32781 1.5429,-3.72482 0,-1.39701 -0.5551,-2.73699 -1.5429,-3.72482 -0.9878,-0.98783 -2.3278,-1.54287 -3.7248,-1.54287 -1.397,0 -2.737,0.55504 -3.7248,1.54287 -0.9879,0.98783 -1.5429,2.32781 -1.5429,3.72482 0,1.39701 0.555,2.73699 1.5429,3.72482 0.9878,0.98783 2.3278,1.54287 3.7248,1.54287 z"
         style="fill-opacity:0.3;stroke-width:1.50505;stroke-linecap:butt;stroke-linejoin:round" />
      <path
         id="use41-8"
         d="m 2072.7582,697.29852 c 1.397,0 2.737,-0.55503 3.7248,-1.54287 0.9878,-0.98783 1.5429,-2.32781 1.5429,-3.72482 0,-1.39701 -0.5551,-2.73698 -1.5429,-3.72482 -0.9878,-0.98783 -2.3278,-1.54287 -3.7248,-1.54287 -1.397,0 -2.737,0.55504 -3.7248,1.54287 -0.9879,0.98784 -1.5429,2.32781 -1.5429,3.72482 0,1.39701 0.555,2.73699 1.5429,3.72482 0.9878,0.98784 2.3278,1.54287 3.7248,1.54287 z"
         style="fill-opacity:0.3;stroke-width:1.50505;stroke-linecap:butt;stroke-linejoin:round" />
      <path
         id="use42-1"
         d="m 2034.686,759.39836 c 1.397,0 2.737,-0.55503 3.7248,-1.54287 0.9878,-0.98783 1.5429,-2.32781 1.5429,-3.72482 0,-1.397 -0.5551,-2.73698 -1.5429,-3.72482 -0.9878,-0.98783 -2.3278,-1.54287 -3.7248,-1.54287 -1.397,0 -2.737,0.55504 -3.7248,1.54287 -0.9879,0.98784 -1.5429,2.32782 -1.5429,3.72482 0,1.39701 0.555,2.73699 1.5429,3.72482 0.9878,0.98784 2.3278,1.54287 3.7248,1.54287 z"
         style="fill-opacity:0.3;stroke-width:1.50505;stroke-linecap:butt;stroke-linejoin:round" />
      <path
         id="use43-4"
         d="m 2065.6807,778.02828 c 1.397,0 2.7369,-0.55504 3.7248,-1.54287 0.9878,-0.98783 1.5428,-2.32781 1.5428,-3.72482 0,-1.39701 -0.555,-2.73699 -1.5428,-3.72482 -0.9879,-0.98783 -2.3278,-1.54287 -3.7248,-1.54287 -1.3971,0 -2.737,0.55504 -3.7249,1.54287 -0.9878,0.98783 -1.5428,2.32781 -1.5428,3.72482 0,1.39701 0.555,2.73699 1.5428,3.72482 0.9879,0.98783 2.3278,1.54287 3.7249,1.54287 z"
         style="fill-opacity:0.3;stroke-width:1.50505;stroke-linecap:butt;stroke-linejoin:round" />
      <path
         id="use44-3"
         d="m 2074.9002,787.34328 c 1.397,0 2.737,-0.55503 3.7248,-1.54287 0.9878,-0.98783 1.5429,-2.32781 1.5429,-3.72482 0,-1.397 -0.5551,-2.73698 -1.5429,-3.72482 -0.9878,-0.98783 -2.3278,-1.54287 -3.7248,-1.54287 -1.397,0 -2.737,0.55504 -3.7249,1.54287 -0.9878,0.98784 -1.5428,2.32782 -1.5428,3.72482 0,1.39701 0.555,2.73699 1.5428,3.72482 0.9879,0.98784 2.3279,1.54287 3.7249,1.54287 z"
         style="fill-opacity:0.3;stroke-width:1.50505;stroke-linecap:butt;stroke-linejoin:round" />
      <path
         id="use45-4"
         d="m 2065.5948,756.29336 c 1.397,0 2.737,-0.55503 3.7248,-1.54287 0.9879,-0.98783 1.5429,-2.32781 1.5429,-3.72482 0,-1.39701 -0.555,-2.73698 -1.5429,-3.72482 -0.9878,-0.98783 -2.3278,-1.54287 -3.7248,-1.54287 -1.397,0 -2.737,0.55504 -3.7248,1.54287 -0.9878,0.98784 -1.5429,2.32781 -1.5429,3.72482 0,1.39701 0.5551,2.73699 1.5429,3.72482 0.9878,0.98784 2.3278,1.54287 3.7248,1.54287 z"
         style="fill-opacity:0.3;stroke-width:1.50505;stroke-linecap:butt;stroke-linejoin:round" />
      <path
         id="use46-6"
         d="m 2086.2041,562.23136 c 1.397,0 2.737,-0.55504 3.7248,-1.54287 0.9879,-0.98783 1.5429,-2.32781 1.5429,-3.72482 0,-1.39701 -0.555,-2.73699 -1.5429,-3.72482 -0.9878,-0.98783 -2.3278,-1.54287 -3.7248,-1.54287 -1.397,0 -2.737,0.55504 -3.7248,1.54287 -0.9878,0.98783 -1.5429,2.32781 -1.5429,3.72482 0,1.39701 0.5551,2.73699 1.5429,3.72482 0.9878,0.98783 2.3278,1.54287 3.7248,1.54287 z"
         style="fill-opacity:0.3;stroke-width:1.50505;stroke-linecap:butt;stroke-linejoin:round" />
      <path
         id="use47-6"
         d="m 2039.9609,605.70126 c 1.397,0 2.737,-0.55504 3.7248,-1.54287 0.9878,-0.98783 1.5429,-2.32781 1.5429,-3.72482 0,-1.39701 -0.5551,-2.73698 -1.5429,-3.72482 -0.9878,-0.98783 -2.3278,-1.54287 -3.7248,-1.54287 -1.397,0 -2.737,0.55504 -3.7248,1.54287 -0.9879,0.98784 -1.5429,2.32781 -1.5429,3.72482 0,1.39701 0.555,2.73699 1.5429,3.72482 0.9878,0.98783 2.3278,1.54287 3.7248,1.54287 z"
         style="fill-opacity:0.3;stroke-width:1.50505;stroke-linecap:butt;stroke-linejoin:round" />
      <path
         id="use48-7"
         d="m 2054.2951,602.59626 c 1.3971,0 2.737,-0.55504 3.7249,-1.54287 0.9878,-0.98783 1.5428,-2.32781 1.5428,-3.72482 0,-1.39701 -0.555,-2.73699 -1.5428,-3.72482 -0.9879,-0.98783 -2.3278,-1.54287 -3.7249,-1.54287 -1.397,0 -2.7369,0.55504 -3.7248,1.54287 -0.9878,0.98783 -1.5428,2.32781 -1.5428,3.72482 0,1.39701 0.555,2.73699 1.5428,3.72482 0.9879,0.98783 2.3278,1.54287 3.7248,1.54287 z"
         style="fill-opacity:0.3;stroke-width:1.50505;stroke-linecap:butt;stroke-linejoin:round" />
      <path
         id="use49-4"
         d="m 2097.6345,796.65824 c 1.397,0 2.737,-0.55504 3.7249,-1.54287 0.9878,-0.98783 1.5428,-2.32781 1.5428,-3.72482 0,-1.39701 -0.555,-2.73699 -1.5428,-3.72482 -0.9879,-0.98783 -2.3279,-1.54287 -3.7249,-1.54287 -1.397,0 -2.737,0.55504 -3.7248,1.54287 -0.9878,0.98783 -1.5429,2.32781 -1.5429,3.72482 0,1.39701 0.5551,2.73699 1.5429,3.72482 0.9878,0.98783 2.3278,1.54287 3.7248,1.54287 z"
         style="fill-opacity:0.3;stroke-width:1.50505;stroke-linecap:butt;stroke-linejoin:round" />
      <path
         id="use50-4"
         d="m 2060.8102,750.08336 c 1.397,0 2.737,-0.55504 3.7248,-1.54287 0.9879,-0.98783 1.5429,-2.32781 1.5429,-3.72482 0,-1.39701 -0.555,-2.73699 -1.5429,-3.72482 -0.9878,-0.98783 -2.3278,-1.54287 -3.7248,-1.54287 -1.397,0 -2.737,0.55504 -3.7248,1.54287 -0.9878,0.98783 -1.5429,2.32781 -1.5429,3.72482 0,1.39701 0.5551,2.73699 1.5429,3.72482 0.9878,0.98783 2.3278,1.54287 3.7248,1.54287 z"
         style="fill-opacity:0.3;stroke-width:1.50505;stroke-linecap:butt;stroke-linejoin:round" />
      <path
         id="use51-4"
         d="m 2067.4779,731.4534 c 1.397,0 2.737,-0.55504 3.7248,-1.54287 0.9879,-0.98784 1.5429,-2.32781 1.5429,-3.72482 0,-1.39701 -0.555,-2.73699 -1.5429,-3.72482 -0.9878,-0.98783 -2.3278,-1.54287 -3.7248,-1.54287 -1.397,0 -2.737,0.55504 -3.7248,1.54287 -0.9878,0.98783 -1.5429,2.32781 -1.5429,3.72482 0,1.39701 0.5551,2.73698 1.5429,3.72482 0.9878,0.98783 2.3278,1.54287 3.7248,1.54287 z"
         style="fill-opacity:0.3;stroke-width:1.50505;stroke-linecap:butt;stroke-linejoin:round" />
      <path
         id="use52-7"
         d="m 2062.4397,785.79078 c 1.3971,0 2.737,-0.55503 3.7249,-1.54287 0.9878,-0.98783 1.5428,-2.32781 1.5428,-3.72482 0,-1.39701 -0.555,-2.73698 -1.5428,-3.72482 -0.9879,-0.98783 -2.3278,-1.54287 -3.7249,-1.54287 -1.397,0 -2.7369,0.55504 -3.7248,1.54287 -0.9878,0.98784 -1.5428,2.32781 -1.5428,3.72482 0,1.39701 0.555,2.73699 1.5428,3.72482 0.9879,0.98784 2.3278,1.54287 3.7248,1.54287 z"
         style="fill-opacity:0.3;stroke-width:1.50505;stroke-linecap:butt;stroke-linejoin:round" />
      <path
         id="use53-9"
         d="m 2039.406,720.58594 c 1.397,0 2.7369,-0.55504 3.7248,-1.54287 0.9878,-0.98783 1.5428,-2.32781 1.5428,-3.72482 0,-1.39701 -0.555,-2.73699 -1.5428,-3.72482 -0.9879,-0.98783 -2.3278,-1.54287 -3.7248,-1.54287 -1.3971,0 -2.737,0.55504 -3.7249,1.54287 -0.9878,0.98783 -1.5428,2.32781 -1.5428,3.72482 0,1.39701 0.555,2.73699 1.5428,3.72482 0.9879,0.98783 2.3278,1.54287 3.7249,1.54287 z"
         style="fill-opacity:0.3;stroke-width:1.50505;stroke-linecap:butt;stroke-linejoin:round" />
      <path
         id="use54-8"
         d="m 2031.5706,760.95086 c 1.397,0 2.737,-0.55503 3.7248,-1.54287 0.9879,-0.98783 1.5429,-2.32781 1.5429,-3.72482 0,-1.397 -0.555,-2.73698 -1.5429,-3.72482 -0.9878,-0.98783 -2.3278,-1.54287 -3.7248,-1.54287 -1.397,0 -2.737,0.55504 -3.7248,1.54287 -0.9878,0.98784 -1.5429,2.32782 -1.5429,3.72482 0,1.39701 0.5551,2.73699 1.5429,3.72482 0.9878,0.98784 2.3278,1.54287 3.7248,1.54287 z"
         style="fill-opacity:0.3;stroke-width:1.50505;stroke-linecap:butt;stroke-linejoin:round" />
      <path
         id="use55-5"
         d="m 2049.0851,740.7684 c 1.397,0 2.737,-0.55503 3.7248,-1.54287 0.9878,-0.98783 1.5429,-2.32781 1.5429,-3.72482 0,-1.39701 -0.5551,-2.73698 -1.5429,-3.72482 -0.9878,-0.98783 -2.3278,-1.54287 -3.7248,-1.54287 -1.397,0 -2.737,0.55504 -3.7248,1.54287 -0.9879,0.98784 -1.5429,2.32781 -1.5429,3.72482 0,1.39701 0.555,2.73699 1.5429,3.72482 0.9878,0.98784 2.3278,1.54287 3.7248,1.54287 z"
         style="fill-opacity:0.3;stroke-width:1.50505;stroke-linecap:butt;stroke-linejoin:round" />
      <path
         id="use56-4"
         d="m 2054.0163,737.6634 c 1.3971,0 2.737,-0.55504 3.7249,-1.54287 0.9878,-0.98783 1.5428,-2.32781 1.5428,-3.72482 0,-1.39701 -0.555,-2.73699 -1.5428,-3.72482 -0.9879,-0.98783 -2.3278,-1.54287 -3.7249,-1.54287 -1.397,0 -2.7369,0.55504 -3.7248,1.54287 -0.9878,0.98783 -1.5428,2.32781 -1.5428,3.72482 0,1.39701 0.555,2.73699 1.5428,3.72482 0.9879,0.98783 2.3278,1.54287 3.7248,1.54287 z"
         style="fill-opacity:0.3;stroke-width:1.50505;stroke-linecap:butt;stroke-linejoin:round" />
      <path
         id="use57-6"
         d="m 2035.8422,722.13844 c 1.397,0 2.7369,-0.55504 3.7248,-1.54287 0.9878,-0.98783 1.5428,-2.32781 1.5428,-3.72482 0,-1.39701 -0.555,-2.73699 -1.5428,-3.72482 -0.9879,-0.98783 -2.3278,-1.54287 -3.7248,-1.54287 -1.3971,0 -2.737,0.55504 -3.7249,1.54287 -0.9878,0.98783 -1.5428,2.32781 -1.5428,3.72482 0,1.39701 0.555,2.73699 1.5428,3.72482 0.9879,0.98783 2.3278,1.54287 3.7249,1.54287 z"
         style="fill-opacity:0.3;stroke-width:1.50505;stroke-linecap:butt;stroke-linejoin:round" />
      <path
         id="use58-1"
         d="m 2067.9071,661.5911 c 1.397,0 2.737,-0.55504 3.7249,-1.54287 0.9878,-0.98783 1.5428,-2.32781 1.5428,-3.72482 0,-1.39701 -0.555,-2.73699 -1.5428,-3.72482 -0.9879,-0.98783 -2.3279,-1.54287 -3.7249,-1.54287 -1.397,0 -2.7369,0.55504 -3.7248,1.54287 -0.9878,0.98783 -1.5428,2.32781 -1.5428,3.72482 0,1.39701 0.555,2.73699 1.5428,3.72482 0.9879,0.98783 2.3278,1.54287 3.7248,1.54287 z"
         style="fill-opacity:0.3;stroke-width:1.50505;stroke-linecap:butt;stroke-linejoin:round" />
      <path
         id="use59-0"
         d="m 2080.2913,647.61864 c 1.397,0 2.737,-0.55504 3.7248,-1.54287 0.9879,-0.98783 1.5429,-2.32781 1.5429,-3.72482 0,-1.39701 -0.555,-2.73699 -1.5429,-3.72482 -0.9878,-0.98783 -2.3278,-1.54287 -3.7248,-1.54287 -1.397,0 -2.737,0.55504 -3.7248,1.54287 -0.9878,0.98783 -1.5429,2.32781 -1.5429,3.72482 0,1.39701 0.5551,2.73699 1.5429,3.72482 0.9878,0.98783 2.3278,1.54287 3.7248,1.54287 z"
         style="fill-opacity:0.3;stroke-width:1.50505;stroke-linecap:butt;stroke-linejoin:round" />
      <path
         id="use60-0"
         d="m 2065.0797,792.00074 c 1.3971,0 2.737,-0.55504 3.7249,-1.54287 0.9878,-0.98783 1.5428,-2.32781 1.5428,-3.72482 0,-1.39701 -0.555,-2.73699 -1.5428,-3.72482 -0.9879,-0.98783 -2.3278,-1.54287 -3.7249,-1.54287 -1.397,0 -2.7369,0.55504 -3.7248,1.54287 -0.9878,0.98783 -1.5428,2.32781 -1.5428,3.72482 0,1.39701 0.555,2.73699 1.5428,3.72482 0.9879,0.98783 2.3278,1.54287 3.7248,1.54287 z"
         style="fill-opacity:0.3;stroke-width:1.50505;stroke-linecap:butt;stroke-linejoin:round" />
      <path
         id="use61-8"
         d="m 2042.7925,733.0059 c 1.397,0 2.737,-0.55504 3.7248,-1.54287 0.9879,-0.98783 1.5429,-2.32781 1.5429,-3.72482 0,-1.39701 -0.555,-2.73699 -1.5429,-3.72482 -0.9878,-0.98783 -2.3278,-1.54287 -3.7248,-1.54287 -1.397,0 -2.737,0.55504 -3.7248,1.54287 -0.9878,0.98783 -1.5429,2.32781 -1.5429,3.72482 0,1.39701 0.5551,2.73699 1.5429,3.72482 0.9878,0.98783 2.3278,1.54287 3.7248,1.54287 z"
         style="fill-opacity:0.3;stroke-width:1.50505;stroke-linecap:butt;stroke-linejoin:round" />
      <path
         id="use62-0"
         d="m 2063.7134,804.42074 c 1.397,0 2.7369,-0.55503 3.7248,-1.54287 0.9878,-0.98783 1.5428,-2.32781 1.5428,-3.72482 0,-1.397 -0.555,-2.73698 -1.5428,-3.72482 -0.9879,-0.98783 -2.3278,-1.54287 -3.7248,-1.54287 -1.3971,0 -2.737,0.55504 -3.7249,1.54287 -0.9878,0.98784 -1.5428,2.32782 -1.5428,3.72482 0,1.39701 0.555,2.73699 1.5428,3.72482 0.9879,0.98784 2.3278,1.54287 3.7249,1.54287 z"
         style="fill-opacity:0.3;stroke-width:1.50505;stroke-linecap:butt;stroke-linejoin:round" />
      <path
         id="use63-3"
         d="m 2068.2688,833.91816 c 1.397,0 2.737,-0.55503 3.7248,-1.54287 0.9879,-0.98783 1.5429,-2.32781 1.5429,-3.72482 0,-1.397 -0.555,-2.73698 -1.5429,-3.72482 -0.9878,-0.98783 -2.3278,-1.54287 -3.7248,-1.54287 -1.397,0 -2.737,0.55504 -3.7248,1.54287 -0.9879,0.98784 -1.5429,2.32782 -1.5429,3.72482 0,1.39701 0.555,2.73699 1.5429,3.72482 0.9878,0.98784 2.3278,1.54287 3.7248,1.54287 z"
         style="fill-opacity:0.3;stroke-width:1.50505;stroke-linecap:butt;stroke-linejoin:round" />
      <path
         id="use64-7"
         d="m 2042.1961,754.74086 c 1.397,0 2.737,-0.55503 3.7248,-1.54287 0.9879,-0.98783 1.5429,-2.32781 1.5429,-3.72482 0,-1.39701 -0.555,-2.73698 -1.5429,-3.72482 -0.9878,-0.98783 -2.3278,-1.54287 -3.7248,-1.54287 -1.397,0 -2.737,0.55504 -3.7248,1.54287 -0.9879,0.98784 -1.5429,2.32781 -1.5429,3.72482 0,1.39701 0.555,2.73699 1.5429,3.72482 0.9878,0.98784 2.3278,1.54287 3.7248,1.54287 z"
         style="fill-opacity:0.3;stroke-width:1.50505;stroke-linecap:butt;stroke-linejoin:round" />
      <path
         id="use65-1"
         d="m 2080.058,669.3536 c 1.397,0 2.737,-0.55503 3.7248,-1.54287 0.9878,-0.98783 1.5429,-2.32781 1.5429,-3.72482 0,-1.397 -0.5551,-2.73698 -1.5429,-3.72482 -0.9878,-0.98783 -2.3278,-1.54287 -3.7248,-1.54287 -1.397,0 -2.737,0.55504 -3.7248,1.54287 -0.9879,0.98784 -1.5429,2.32782 -1.5429,3.72482 0,1.39701 0.555,2.73699 1.5429,3.72482 0.9878,0.98784 2.3278,1.54287 3.7248,1.54287 z"
         style="fill-opacity:0.3;stroke-width:1.50505;stroke-linecap:butt;stroke-linejoin:round" />
      <path
         id="use66-9"
         d="m 2086.6454,683.32606 c 1.397,0 2.737,-0.55503 3.7248,-1.54287 0.9879,-0.98783 1.5429,-2.32781 1.5429,-3.72482 0,-1.397 -0.555,-2.73698 -1.5429,-3.72482 -0.9878,-0.98783 -2.3278,-1.54287 -3.7248,-1.54287 -1.397,0 -2.737,0.55504 -3.7248,1.54287 -0.9878,0.98784 -1.5429,2.32782 -1.5429,3.72482 0,1.39701 0.5551,2.73699 1.5429,3.72482 0.9878,0.98784 2.3278,1.54287 3.7248,1.54287 z"
         style="fill-opacity:0.3;stroke-width:1.50505;stroke-linecap:butt;stroke-linejoin:round" />
      <path
         id="use67-3"
         d="m 2081.7086,792.00074 c 1.3971,0 2.737,-0.55504 3.7249,-1.54287 0.9878,-0.98783 1.5428,-2.32781 1.5428,-3.72482 0,-1.39701 -0.555,-2.73699 -1.5428,-3.72482 -0.9879,-0.98783 -2.3278,-1.54287 -3.7249,-1.54287 -1.397,0 -2.7369,0.55504 -3.7248,1.54287 -0.9878,0.98783 -1.5428,2.32781 -1.5428,3.72482 0,1.39701 0.555,2.73699 1.5428,3.72482 0.9879,0.98783 2.3278,1.54287 3.7248,1.54287 z"
         style="fill-opacity:0.3;stroke-width:1.50505;stroke-linecap:butt;stroke-linejoin:round" />
      <path
         id="use68-1"
         d="m 2082.8256,739.2159 c 1.397,0 2.737,-0.55504 3.7249,-1.54287 0.9878,-0.98783 1.5428,-2.32781 1.5428,-3.72482 0,-1.39701 -0.555,-2.73698 -1.5428,-3.72482 -0.9879,-0.98783 -2.3279,-1.54287 -3.7249,-1.54287 -1.397,0 -2.737,0.55504 -3.7248,1.54287 -0.9878,0.98784 -1.5429,2.32781 -1.5429,3.72482 0,1.39701 0.5551,2.73699 1.5429,3.72482 0.9878,0.98783 2.3278,1.54287 3.7248,1.54287 z"
         style="fill-opacity:0.3;stroke-width:1.50505;stroke-linecap:butt;stroke-linejoin:round" />
      <path
         id="use69-1"
         d="m 2088.4679,697.29852 c 1.397,0 2.737,-0.55503 3.7249,-1.54287 0.9878,-0.98783 1.5428,-2.32781 1.5428,-3.72482 0,-1.39701 -0.555,-2.73698 -1.5428,-3.72482 -0.9879,-0.98783 -2.3279,-1.54287 -3.7249,-1.54287 -1.397,0 -2.737,0.55504 -3.7248,1.54287 -0.9878,0.98784 -1.5429,2.32781 -1.5429,3.72482 0,1.39701 0.5551,2.73699 1.5429,3.72482 0.9878,0.98784 2.3278,1.54287 3.7248,1.54287 z"
         style="fill-opacity:0.3;stroke-width:1.50505;stroke-linecap:butt;stroke-linejoin:round" />
      <path
         id="use70-1"
         d="m 2041.6179,639.85618 c 1.397,0 2.737,-0.55503 3.7248,-1.54287 0.9878,-0.98783 1.5429,-2.32781 1.5429,-3.72482 0,-1.397 -0.5551,-2.73698 -1.5429,-3.72482 -0.9878,-0.98783 -2.3278,-1.54287 -3.7248,-1.54287 -1.397,0 -2.737,0.55504 -3.7248,1.54287 -0.9879,0.98784 -1.5429,2.32782 -1.5429,3.72482 0,1.39701 0.555,2.73699 1.5429,3.72482 0.9878,0.98784 2.3278,1.54287 3.7248,1.54287 z"
         style="fill-opacity:0.3;stroke-width:1.50505;stroke-linecap:butt;stroke-linejoin:round" />
      <path
         id="use71-9"
         d="m 2053.7532,764.05582 c 1.397,0 2.7369,-0.55504 3.7248,-1.54287 0.9878,-0.98783 1.5429,-2.32781 1.5429,-3.72482 0,-1.39701 -0.5551,-2.73699 -1.5429,-3.72482 -0.9879,-0.98783 -2.3278,-1.54287 -3.7248,-1.54287 -1.397,0 -2.737,0.55504 -3.7249,1.54287 -0.9878,0.98783 -1.5428,2.32781 -1.5428,3.72482 0,1.39701 0.555,2.73699 1.5428,3.72482 0.9879,0.98783 2.3279,1.54287 3.7249,1.54287 z"
         style="fill-opacity:0.3;stroke-width:1.50505;stroke-linecap:butt;stroke-linejoin:round" />
      <path
         id="use72-6"
         d="m 2079.5215,714.37598 c 1.397,0 2.737,-0.55503 3.7248,-1.54287 0.9878,-0.98783 1.5429,-2.32781 1.5429,-3.72482 0,-1.397 -0.5551,-2.73698 -1.5429,-3.72482 -0.9878,-0.98783 -2.3278,-1.54287 -3.7248,-1.54287 -1.397,0 -2.737,0.55504 -3.7248,1.54287 -0.9879,0.98784 -1.5429,2.32782 -1.5429,3.72482 0,1.39701 0.555,2.73699 1.5429,3.72482 0.9878,0.98784 2.3278,1.54287 3.7248,1.54287 z"
         style="fill-opacity:0.3;stroke-width:1.50505;stroke-linecap:butt;stroke-linejoin:round" />
      <path
         id="use73-1"
         d="m 2084.4345,804.42074 c 1.397,0 2.737,-0.55503 3.7249,-1.54287 0.9878,-0.98783 1.5428,-2.32781 1.5428,-3.72482 0,-1.397 -0.555,-2.73698 -1.5428,-3.72482 -0.9879,-0.98783 -2.3279,-1.54287 -3.7249,-1.54287 -1.397,0 -2.737,0.55504 -3.7248,1.54287 -0.9878,0.98784 -1.5429,2.32782 -1.5429,3.72482 0,1.39701 0.5551,2.73699 1.5429,3.72482 0.9878,0.98784 2.3278,1.54287 3.7248,1.54287 z"
         style="fill-opacity:0.3;stroke-width:1.50505;stroke-linecap:butt;stroke-linejoin:round" />
      <path
         id="use74-8"
         d="m 2077.108,838.57562 c 1.397,0 2.7369,-0.55504 3.7248,-1.54287 0.9878,-0.98783 1.5429,-2.32781 1.5429,-3.72482 0,-1.39701 -0.5551,-2.73699 -1.5429,-3.72482 -0.9879,-0.98783 -2.3278,-1.54287 -3.7248,-1.54287 -1.397,0 -2.737,0.55504 -3.7249,1.54287 -0.9878,0.98783 -1.5428,2.32781 -1.5428,3.72482 0,1.39701 0.555,2.73699 1.5428,3.72482 0.9879,0.98783 2.3279,1.54287 3.7249,1.54287 z"
         style="fill-opacity:0.3;stroke-width:1.50505;stroke-linecap:butt;stroke-linejoin:round" />
      <path
         id="use75-7"
         d="m 2040.0188,722.13844 c 1.397,0 2.7369,-0.55504 3.7248,-1.54287 0.9878,-0.98783 1.5429,-2.32781 1.5429,-3.72482 0,-1.39701 -0.5551,-2.73699 -1.5429,-3.72482 -0.9879,-0.98783 -2.3278,-1.54287 -3.7248,-1.54287 -1.397,0 -2.737,0.55504 -3.7249,1.54287 -0.9878,0.98783 -1.5428,2.32781 -1.5428,3.72482 0,1.39701 0.555,2.73699 1.5428,3.72482 0.9879,0.98783 2.3279,1.54287 3.7249,1.54287 z"
         style="fill-opacity:0.3;stroke-width:1.50505;stroke-linecap:butt;stroke-linejoin:round" />
      <path
         id="use76-9"
         d="m 2078.893,731.4534 c 1.397,0 2.7369,-0.55504 3.7248,-1.54287 0.9878,-0.98784 1.5429,-2.32781 1.5429,-3.72482 0,-1.39701 -0.5551,-2.73699 -1.5429,-3.72482 -0.9879,-0.98783 -2.3278,-1.54287 -3.7248,-1.54287 -1.397,0 -2.737,0.55504 -3.7249,1.54287 -0.9878,0.98783 -1.5428,2.32781 -1.5428,3.72482 0,1.39701 0.555,2.73698 1.5428,3.72482 0.9879,0.98783 2.3279,1.54287 3.7249,1.54287 z"
         style="fill-opacity:0.3;stroke-width:1.50505;stroke-linecap:butt;stroke-linejoin:round" />
      <path
         id="use77-4"
         d="m 2077.7181,717.48094 c 1.397,0 2.7369,-0.55504 3.7248,-1.54287 0.9878,-0.98783 1.5428,-2.32781 1.5428,-3.72482 0,-1.39701 -0.555,-2.73699 -1.5428,-3.72482 -0.9879,-0.98783 -2.3278,-1.54287 -3.7248,-1.54287 -1.3971,0 -2.737,0.55504 -3.7249,1.54287 -0.9878,0.98783 -1.5428,2.32781 -1.5428,3.72482 0,1.39701 0.555,2.73699 1.5428,3.72482 0.9879,0.98783 2.3278,1.54287 3.7249,1.54287 z"
         style="fill-opacity:0.3;stroke-width:1.50505;stroke-linecap:butt;stroke-linejoin:round" />
      <path
         id="use78-0"
         d="m 2061.3309,751.63586 c 1.397,0 2.737,-0.55504 3.7249,-1.54287 0.9878,-0.98783 1.5428,-2.32781 1.5428,-3.72482 0,-1.39701 -0.555,-2.73699 -1.5428,-3.72482 -0.9879,-0.98783 -2.3279,-1.54287 -3.7249,-1.54287 -1.397,0 -2.737,0.55504 -3.7248,1.54287 -0.9878,0.98783 -1.5429,2.32781 -1.5429,3.72482 0,1.39701 0.5551,2.73699 1.5429,3.72482 0.9878,0.98783 2.3278,1.54287 3.7248,1.54287 z"
         style="fill-opacity:0.3;stroke-width:1.50505;stroke-linecap:butt;stroke-linejoin:round" />
      <path
         id="use79-4"
         d="m 2047.7303,531.1171 q 0,-0.46139 0.6223,-0.76616 l 3.7673,-1.78632 -3.8224,-1.78631 q -0.5672,-0.26244 -0.5672,-0.72807 0,-0.26244 0.2159,-0.50795 0.2201,-0.24552 0.5122,-0.24552 0.2116,0 0.5926,0.29208 l 3.361,2.43395 q -0.4106,-4.47001 -0.3979,-4.60546 0,-0.26245 0.1989,-0.46563 0.199,-0.20741 0.5291,-0.20741 0.2667,0 0.4826,0.19471 0.2201,0.19049 0.2201,0.47833 l -0.3979,4.60546 3.0012,-2.2223 q 0.7027,-0.51642 0.9524,-0.50373 0.3048,0 0.5164,0.24128 0.2117,0.23705 0.2117,0.51219 0,0.46563 -0.6223,0.75347 l -3.7673,1.78631 3.8224,1.79901 q 0.5672,0.26668 0.5672,0.72807 0,0.26668 -0.2201,0.51219 -0.2159,0.24128 -0.508,0.24128 -0.1566,0 -0.436,-0.15662 -0.051,-0.0296 -0.6222,-0.45293 -0.5673,-0.42329 -1.4477,-1.07094 -0.8805,-0.64764 -1.4477,-1.05824 0.4106,4.47425 0.3979,4.60547 0,0.26244 -0.1989,0.47409 -0.199,0.21165 -0.5292,0.21165 -0.2666,0 -0.4867,-0.19049 -0.2159,-0.19048 -0.2159,-0.49525 l 0.3979,-4.60547 -3.7843,2.73873 q -0.4106,0 -0.6307,-0.20318 -0.2159,-0.20742 -0.2413,-0.32594 -0.025,-0.11852 -0.025,-0.22435 z"
         style="stroke-width:0.00423297;stroke-linecap:butt;stroke-linejoin:round" />
      <path
         id="use80-0"
         d="m 2061.2758,531.1171 q 0,-0.46139 0.6222,-0.76616 l 3.7674,-1.78632 -3.8224,-1.78631 q -0.5672,-0.26244 -0.5672,-0.72807 0,-0.26244 0.2159,-0.50795 0.2201,-0.24552 0.5122,-0.24552 0.2116,0 0.5926,0.29208 l 3.361,2.43395 q -0.4106,-4.47001 -0.3979,-4.60546 0,-0.26245 0.1989,-0.46563 0.199,-0.20741 0.5291,-0.20741 0.2667,0 0.4826,0.19471 0.2201,0.19049 0.2201,0.47833 l -0.3979,4.60546 3.0012,-2.2223 q 0.7027,-0.51642 0.9524,-0.50373 0.3048,0 0.5164,0.24128 0.2117,0.23705 0.2117,0.51219 0,0.46563 -0.6223,0.75347 l -3.7673,1.78631 3.8223,1.79901 q 0.5673,0.26668 0.5673,0.72807 0,0.26668 -0.2201,0.51219 -0.2159,0.24128 -0.508,0.24128 -0.1566,0 -0.436,-0.15662 -0.051,-0.0296 -0.6222,-0.45293 -0.5673,-0.42329 -1.4477,-1.07094 -0.8805,-0.64764 -1.4477,-1.05824 0.4106,4.47425 0.3979,4.60547 0,0.26244 -0.1989,0.47409 -0.199,0.21165 -0.5292,0.21165 -0.2666,0 -0.4868,-0.19049 -0.2158,-0.19048 -0.2158,-0.49525 l 0.3979,-4.60547 -3.7843,2.73873 q -0.4106,0 -0.6307,-0.20318 -0.2159,-0.20742 -0.2413,-0.32594 -0.025,-0.11852 -0.025,-0.22435 z"
         style="stroke-width:0.00423297;stroke-linecap:butt;stroke-linejoin:round" />
      <path
         id="use81-2"
         d="m 2074.8213,531.1171 q 0,-0.46139 0.6222,-0.76616 l 3.7674,-1.78632 -3.8224,-1.78631 q -0.5672,-0.26244 -0.5672,-0.72807 0,-0.26244 0.2159,-0.50795 0.2201,-0.24552 0.5122,-0.24552 0.2116,0 0.5926,0.29208 l 3.361,2.43395 q -0.4106,-4.47001 -0.3979,-4.60546 0,-0.26245 0.1989,-0.46563 0.199,-0.20741 0.5291,-0.20741 0.2667,0 0.4826,0.19471 0.2201,0.19049 0.2201,0.47833 l -0.3979,4.60546 3.0012,-2.2223 q 0.7026,-0.51642 0.9524,-0.50373 0.3048,0 0.5164,0.24128 0.2117,0.23705 0.2117,0.51219 0,0.46563 -0.6223,0.75347 l -3.7673,1.78631 3.8223,1.79901 q 0.5673,0.26668 0.5673,0.72807 0,0.26668 -0.2202,0.51219 -0.2158,0.24128 -0.5079,0.24128 -0.1566,0 -0.436,-0.15662 -0.051,-0.0296 -0.6223,-0.45293 -0.5672,-0.42329 -1.4476,-1.07094 -0.8805,-0.64764 -1.4477,-1.05824 0.4106,4.47425 0.3979,4.60547 0,0.26244 -0.199,0.47409 -0.1989,0.21165 -0.5291,0.21165 -0.2667,0 -0.4868,-0.19049 -0.2158,-0.19048 -0.2158,-0.49525 l 0.3979,-4.60547 -3.7843,2.73873 q -0.4106,0 -0.6307,-0.20318 -0.2159,-0.20742 -0.2413,-0.32594 -0.025,-0.11852 -0.025,-0.22435 z"
         style="stroke-width:0.00423297;stroke-linecap:butt;stroke-linejoin:round" />
      <path
         d="m 2025.9891,935.37241 c 0,0.51724 0,0.7302 0.3347,0.7302 0.2129,0 0.2435,-0.061 0.4564,-0.39551 0,-0.0293 0.091,-0.12159 1.0953,-1.73423 0.9432,1.03444 2.8904,2.12974 5.5982,2.12974 3.5597,0 5.9938,-2.98163 5.9938,-6.32839 0,-3.04253 -2.0081,-5.5374 -4.5638,-6.14588 l -3.8944,-0.9432 c -1.8864,-0.45637 -3.073,-2.09932 -3.073,-3.86396 0,-2.12978 1.643,-3.98569 4.0162,-3.98569 5.0809,0 5.7503,4.98971 5.9328,6.35884 0.029,0.18255 0.029,0.3651 0.3651,0.3651 0.3956,0 0.3956,-0.15224 0.3956,-0.7302 v -6.11547 c 0,-0.5172 0,-0.7302 -0.3347,-0.7302 -0.2129,0 -0.2435,0.0293 -0.4564,0.39555 l -1.0649,1.73423 c -0.9127,-0.88234 -2.1602,-2.12978 -4.868,-2.12978 -3.3772,0 -5.9329,2.67743 -5.9329,5.90247 0,2.52529 1.6126,4.74634 3.9857,5.56781 0.3347,0.12159 1.8864,0.48679 4.0161,1.00403 0.8215,0.21287 1.7342,0.42596 2.5862,1.55167 0.6389,0.79107 0.9431,1.79509 0.9431,2.79912 0,2.16019 -1.5212,4.35079 -4.0769,4.35079 -0.8824,0 -3.1947,-0.15224 -4.8072,-1.64295 -1.7646,-1.64295 -1.8559,-3.59018 -1.8864,-4.68548 -0.029,-0.30414 -0.2738,-0.30414 -0.3651,-0.30414 -0.3955,0 -0.3955,0.21287 -0.3955,0.76061 z"
         id="text1672-4-2-3-4"
         style="font-size:9.33336px;font-family:'CMU Serif';-inkscape-font-specification:'CMU Serif, Normal';stroke:#000000;stroke-width:0.357296;stroke-linecap:butt;stroke-linejoin:round;paint-order:markers fill stroke"
         aria-label="S " />
      <path
         style="font-size:5.33333px;font-family:'CMU Serif';-inkscape-font-specification:'CMU Serif, Normal';stroke:#020202;stroke-width:0.357296;stroke-linecap:butt;stroke-linejoin:round;paint-order:markers fill stroke"
         d="m 2045.2091,940.11868 h 6.4501 l 0.4868,-3.02511 h -0.4347 c -0.087,0.52157 -0.2086,1.28652 -0.3824,1.54731 -0.1216,0.13919 -1.2692,0.13919 -1.6517,0.13919 h -3.1294 l 1.8428,-1.79072 c 2.7122,-2.39923 3.7554,-3.33806 3.7554,-5.07662 0,-1.98197 -1.5648,-3.37284 -3.6858,-3.37284 -1.9646,0 -3.2511,1.59949 -3.2511,3.1468 0,0.97361 0.8693,0.97361 0.9214,0.97361 0.2957,0 0.9041,-0.20862 0.9041,-0.92145 0,-0.45201 -0.313,-0.90405 -0.9215,-0.90405 -0.1392,0 -0.1737,0 -0.2259,0.0163 0.3999,-1.13005 1.3387,-1.77334 2.3471,-1.77334 1.5821,0 2.3297,1.40824 2.3297,2.83389 0,1.39084 -0.8693,2.76433 -1.8255,3.84223 l -3.3381,3.72053 c -0.1913,0.19135 -0.1913,0.22591 -0.1913,0.6433 z"
         id="text1079-1-0-8"
         aria-label="2" />
      <path
         d="m 2094.3934,935.37241 c 0,0.51724 0,0.7302 0.3347,0.7302 0.2128,0 0.2435,-0.061 0.4563,-0.39551 0,-0.0293 0.091,-0.12159 1.0953,-1.73423 0.9432,1.03444 2.8904,2.12974 5.5983,2.12974 3.5597,0 5.9937,-2.98163 5.9937,-6.32839 0,-3.04253 -2.0081,-5.5374 -4.5638,-6.14588 l -3.8944,-0.9432 c -1.8864,-0.45637 -3.0729,-2.09932 -3.0729,-3.86396 0,-2.12978 1.6429,-3.98569 4.0161,-3.98569 5.081,0 5.7503,4.98971 5.9329,6.35884 0.029,0.18255 0.029,0.3651 0.3651,0.3651 0.3955,0 0.3955,-0.15224 0.3955,-0.7302 v -6.11547 c 0,-0.5172 0,-0.7302 -0.3347,-0.7302 -0.2128,0 -0.2435,0.0293 -0.4563,0.39555 l -1.0649,1.73423 c -0.9128,-0.88234 -2.1602,-2.12978 -4.8681,-2.12978 -3.3771,0 -5.9328,2.67743 -5.9328,5.90247 0,2.52529 1.6125,4.74634 3.9857,5.56781 0.3346,0.12159 1.8863,0.48679 4.0161,1.00403 0.8214,0.21287 1.7342,0.42596 2.5861,1.55167 0.6389,0.79107 0.9432,1.79509 0.9432,2.79912 0,2.16019 -1.5213,4.35079 -4.077,4.35079 -0.8823,0 -3.1946,-0.15224 -4.8072,-1.64295 -1.7646,-1.64295 -1.8559,-3.59018 -1.8863,-4.68548 -0.029,-0.30414 -0.2738,-0.30414 -0.3651,-0.30414 -0.3955,0 -0.3955,0.21287 -0.3955,0.76061 z"
         id="text1672-4-2-3-6-4"
         style="font-size:9.33336px;font-family:'CMU Serif';-inkscape-font-specification:'CMU Serif, Normal';stroke:#000000;stroke-width:0.357296;stroke-linecap:butt;stroke-linejoin:round;paint-order:markers fill stroke"
         aria-label="S " />
      <path
         style="font-size:5.33333px;font-family:'CMU Serif';-inkscape-font-specification:'CMU Serif, Normal';stroke:#020202;stroke-width:0.357296;stroke-linecap:butt;stroke-linejoin:round;paint-order:markers fill stroke"
         d="m 2113.6133,940.11868 h 6.4501 l 0.4868,-3.02511 h -0.4346 c -0.087,0.52157 -0.2087,1.28652 -0.3825,1.54731 -0.1216,0.13919 -1.2692,0.13919 -1.6517,0.13919 h -3.1294 l 1.8429,-1.79072 c 2.7122,-2.39923 3.7553,-3.33806 3.7553,-5.07662 0,-1.98197 -1.5647,-3.37284 -3.6858,-3.37284 -1.9646,0 -3.2511,1.59949 -3.2511,3.1468 0,0.97361 0.8693,0.97361 0.9214,0.97361 0.2957,0 0.9041,-0.20862 0.9041,-0.92145 0,-0.45201 -0.3129,-0.90405 -0.9214,-0.90405 -0.1392,0 -0.1738,0 -0.2259,0.0163 0.3998,-1.13005 1.3386,-1.77334 2.347,-1.77334 1.5821,0 2.3297,1.40824 2.3297,2.83389 0,1.39084 -0.8693,2.76433 -1.8255,3.84223 l -3.3381,3.72053 c -0.1913,0.19135 -0.1913,0.22591 -0.1913,0.6433 z"
         id="text1079-1-0-7-0"
         aria-label="2" />
      <path
         d="m 2059.156,927.38576 c 0,0.53292 0.5049,0.56096 0.9537,0.56096 h 20.9247 c -2.0195,1.71102 -3.3659,3.89886 -3.7866,6.45135 h 1.1219 c 0.8135,-4.65618 4.4879,-6.45135 5.666,-7.01231 -1.122,-0.53295 -4.8525,-2.32809 -5.666,-7.01231 h -1.1219 c 0.4207,2.55246 1.7671,4.74033 3.7866,6.45132 h -20.8406 c -0.4488,0 -1.0378,0.027 -1.0378,0.56099 z"
         id="text1672-8-0"
         style="font-size:9.33336px;font-family:'CMU Serif';-inkscape-font-specification:'CMU Serif, Normal';stroke:#000000;stroke-width:0.329395;stroke-linecap:butt;stroke-linejoin:round;paint-order:markers fill stroke"
         aria-label=" →" />
    </g>
  </g>
</svg>
